<?xml version="1.0" encoding="UTF-8"?>
<svg id="Layer_1" data-name="Layer 1" xmlns="http://www.w3.org/2000/svg" viewBox="0 0 206.12 526.46">
  <defs>
    <style>
      .cls-1 {
        fill: #4c564b;
      }

      .cls-1, .cls-2, .cls-3, .cls-4 {
        stroke-width: 0px;
      }

      .cls-2 {
        fill: #6b7669;
      }

      .cls-3 {
        fill: #e48840;
      }

      .cls-4 {
        fill: #f1bb50;
      }
    </style>
  </defs>
  <path class="cls-2" d="m8.5,507.25l10-.14c-.01-1-1.27-101.34,13.03-203.43,13.02-92.92,41.77-206.35,104.81-219l-1.97-9.8c-30.83,6.19-56.58,33.29-76.51,80.55-15.57,36.91-27.76,86.36-36.25,146.97-14.4,102.84-13.13,203.85-13.11,204.86Z"/>
  <g>
    <path class="cls-3" d="m151.38,142.01s-33.88,3.01-53.46-22.59c-19.58-25.6-37.65-16.19-42.16-52.71-4.52-36.52,35.01-42.92,39.91-45.93s20.33-13.18,39.91-13.18,70.78,15.44,66.26,75.29c0,0,10.16,59.11-50.45,59.11Z"/>
    <path class="cls-4" d="m151.81,72.27s-.64,8.12-4.16,8.12c-3.53,0-3.81-3.95-3.32-6.78s-.28-17.61-11.44-17.61-5.86,11.61-1.55,11.61c4.31,0,4.24-3.39,2.96-4.02s-1.55-3.32-.21-3.32,5.65,1.2,5.65,7.62c0,6.42-5.86,7.91-9.25,7.91s-11.51.14-11.51-13.84c0-13.98,12.21-13.13,13.76-13.13s19.06-.99,19.06,23.44Z"/>
    <path class="cls-4" d="m128.94,80.39c1.75-.18,7.48-2.66,7.01-.49s-1.13,6.68-8.66,6.68-28.52-5.55-28.52-23.62,11.48-29.65,25.13-29.65c13.65,0,19.48,8.47,19.48,10.45s-.75,3.2-3.76,3.2-6.59-5.08-14.21-5.08c-7.62,0-12.61,7.53-12.61,15.53,0,8,6.64,23.97,16.14,22.99Z"/>
    <path class="cls-4" d="m115.62,19.89s12.14.05,12.14,4.66-37.65,2.73-37.65,29.18,14.12,21.18,8.28,30.96-23.72-9.6-23.72-25.41c0-15.81,13.73-39.39,40.94-39.39Z"/>
    <path class="cls-4" d="m162.78,68.06c-.27-10.5-4.05-18.94-22.14-36.37-16.67-16.06,11.17-2.31,17.27,2.55,5.45,4.34,18.25,16.18,18.25,31.38,0,15.21-11.68,36.74-38.68,36.74s-36.98-15.8-27.61-15.8c9.37,0,7.79,6.79,24.33,6.79,16.54,0,28.87-14.24,28.59-25.3Z"/>
    <path class="cls-4" d="m186.38,49.45s.97,8.64-3.65,8.64-4.99-3.53-5.72-6.08-2.92-17.64-14.35-25.55c-11.43-7.91-6.08-7.66-3.89-7.66s27.61,3.28,27.61,30.65Z"/>
    <path class="cls-4" d="m194.17,91.42c-.67,13.6-9.12,39.41-37.59,39.41-33.7,0-58.63-28.47-45.01-28.47s8.64,9.97,33.94,9.97,41.85-15.57,41.85-30.65c0-15.08,7.34-1.08,6.81,9.73Z"/>
  </g>
  <g>
    <path class="cls-2" d="m112.56,209.72s-1.69,13.69-10.16,21.67-77.46,19.84-77.46,71.51c0,0,43.2,32.38,99.67-30.87,0,0,24-26.26-12.05-62.31Z"/>
    <path class="cls-1" d="m28.78,301.11l-.35-.94c.7-.26,70.33-26.61,81.78-55.81.04-.12,4.94-14.57,4.25-20.32l.99-.12c.71,5.97-4.1,20.18-4.3,20.79-4.89,12.47-20.25,25.74-45.65,39.48-18.87,10.2-36.54,16.86-36.72,16.92Z"/>
    <rect class="cls-1" x="44.05" y="288.93" width="1" height="26.78" transform="translate(-260.37 282.13) rotate(-77.83)"/>
    <polygon class="cls-1" points="87.26 298.12 48.87 292.47 49.01 291.48 87.41 297.13 87.26 298.12"/>
    <rect class="cls-1" x="38.84" y="275.82" width="1" height="19.97" transform="translate(-26.75 4.98) rotate(-5.41)"/>
    <rect class="cls-1" x="52.95" y="260.27" width="1" height="28.59" transform="translate(-42.71 11.89) rotate(-9.09)"/>
    <rect class="cls-1" x="67.95" y="281.78" width="40.47" height="1"/>
    <rect class="cls-1" x="71.03" y="249.06" width="1" height="31.25"/>
    <rect class="cls-1" x="86.89" y="268.44" width="30.63" height="1" transform="translate(-24.75 10.76) rotate(-5.38)"/>
    <rect class="cls-1" x="106.24" y="250" width="19.97" height="1" transform="translate(-34.96 19.41) rotate(-8.3)"/>
    <rect class="cls-1" x="70.19" y="258.54" width="29.4" height="1" transform="translate(-184.64 299.75) rotate(-80.45)"/>
    <rect class="cls-1" x="86.93" y="250.65" width="24.07" height="1" transform="translate(-167.05 297.01) rotate(-78.27)"/>
  </g>
</svg>