<?xml version="1.0" encoding="UTF-8"?>
<svg id="Layer_1" data-name="Layer 1" xmlns="http://www.w3.org/2000/svg" viewBox="0 0 323.68 536.25">
  <defs>
    <style>
      .cls-1 {
        fill: #cc6969;
      }

      .cls-1, .cls-2, .cls-3, .cls-4 {
        stroke-width: 0px;
      }

      .cls-2 {
        fill: #dd3e3e;
      }

      .cls-3 {
        fill: #dbd03e;
      }

      .cls-4 {
        fill: #6b7669;
      }
    </style>
  </defs>
  <path class="cls-4" d="m219.26,533.7l-10-.14c.01-1,1.27-101.34-13.03-203.43-13.02-92.92-41.77-206.35-104.81-219l1.97-9.8c30.83,6.19,56.58,33.29,76.51,80.55,15.57,36.91,27.76,86.36,36.25,146.97,14.4,102.84,13.13,203.85,13.11,204.86Z"/>
  <path class="cls-4" d="m212.7,401.64s8.27-11.32,30.11-25.57c21.84-14.25,27.13-19.85,34.56-28.67,7.43-8.83,12.3-13.17,7.25-17.85-5.05-4.68,5.84-13.31,11.35-16.69s14.39-15.25,12.66-21.59-5.85-9-10.74-10.32c0,0,27.15-44.81,17.97-78.61,0,0-1.58-21.12-14.27-1.04s-22.63,36.4-28.82,45.64c0,0-2.58-9.51-11.39-7.12s-17.38,29.3-21.07,39.37c-3.69,10.08-1.3-11.75-12.92-8.59s-28.36,64.04-21.09,90.8l6.39,40.24Z"/>
  <path class="cls-4" d="m200.89,312.48s-9.68-6.08-30.53-10.27c-20.85-4.19-26.54-6.83-34.84-11.27-8.3-4.44-13.3-6.26-10.89-11.33s-8.44-8.31-13.64-9.21-15.5-7.2-16.11-12.52,1.71-8.58,5.02-11.06c0,0-34.1-25.73-37.37-54.11,0,0-5.19-16.48,10.5-5.1s28.14,20.73,35.62,25.86c0,0-.92-7.98,6.47-8.83s22.01,16.94,27.85,23.45c5.84,6.52-2.56-9.29,7.19-10.41,9.75-1.12,40.83,39.93,43.41,62.4l7.32,32.4Z"/>
  <path class="cls-1" d="m199.47,137.92l-69.77-26.07c-4.17-1.56-4.38-7.38-.32-9.23l67.65-30.85c2.51-1.15,3.62-4.11,2.47-6.62h0c-1.15-2.51-4.11-3.62-6.62-2.48l-67.33,30.7c-4.05,1.85-8.32-2.13-6.76-6.3l25.9-69.31c.97-2.59-.35-5.47-2.93-6.43h0c-2.59-.97-5.47.35-6.43,2.93l-25.9,69.31c-1.56,4.17-7.38,4.38-9.23.32l-30.7-67.33c-1.15-2.51-4.11-3.62-6.62-2.47h0c-2.51,1.15-3.62,4.11-2.48,6.62l30.85,67.65c1.85,4.05-2.13,8.32-6.3,6.76L15.61,69.22c-2.59-.97-5.47.35-6.43,2.93h0c-.97,2.59.35,5.47,2.93,6.43l68.86,25.73c4.17,1.56,4.38,7.38.32,9.23l-67,30.55c-2.51,1.15-3.62,4.11-2.47,6.62h0c1.15,2.51,4.11,3.62,6.62,2.48l67.33-30.7c4.05-1.85,8.32,2.13,6.76,6.3l-25.9,69.31c-.97,2.59.35,5.47,2.93,6.43h0c2.59.97,5.47-.35,6.43-2.93l25.9-69.32c1.56-4.17,7.38-4.38,9.23-.32l30.7,67.33c1.15,2.51,4.11,3.62,6.62,2.47h0c2.51-1.15,3.62-4.11,2.48-6.62l-30.55-67c-1.85-4.05,2.13-8.32,6.3-6.76l69.3,25.89c2.59.97,5.47-.35,6.43-2.93h0c.97-2.59-.35-5.47-2.93-6.43Z"/>
  <path class="cls-2" d="m208.27,105.52h0c-.07-2.76-2.37-4.94-5.13-4.86l-74.46,1.99c-4.45.12-6.83-5.21-3.76-8.44l51.15-53.96c1.9-2,1.82-5.17-.19-7.07h0c-2-1.9-5.17-1.82-7.07.19l-50.91,53.7c-3.06,3.23-8.51,1.15-8.63-3.31l-1.97-73.97c-.07-2.76-2.37-4.94-5.13-4.86h0c-2.76.07-4.94,2.37-4.86,5.13l1.97,73.97c.12,4.45-5.21,6.83-8.44,3.76l-53.7-50.91c-2-1.9-5.17-1.82-7.07.19h0c-1.9,2-1.82,5.17.19,7.07l53.96,51.15c3.23,3.06,1.15,8.51-3.31,8.63l-73.98,1.97c-2.76.07-4.94,2.37-4.86,5.13h0c.07,2.76,2.37,4.94,5.13,4.86l73.48-1.96c4.45-.12,6.83,5.21,3.76,8.44l-50.67,53.44c-1.9,2-1.82,5.17.19,7.07h0c2,1.9,5.17,1.82,7.07-.19l50.91-53.7c3.06-3.23,8.51-1.15,8.63,3.31l1.97,73.97c.07,2.76,2.37,4.94,5.13,4.86h0c2.76-.07,4.94-2.37,4.86-5.13l-1.97-73.97c-.12-4.45,5.21-6.83,8.44-3.76l53.7,50.91c2,1.9,5.17,1.82,7.07-.19h0c1.9-2,1.82-5.17-.19-7.07l-53.44-50.67c-3.23-3.06-1.15-8.51,3.31-8.63l73.96-1.97c2.76-.07,4.94-2.37,4.86-5.13Z"/>
  <circle class="cls-3" cx="105.17" cy="106.86" r="23.71"/>
</svg>