<?xml version="1.0" encoding="UTF-8"?>
<svg id="Layer_1" data-name="Layer 1" xmlns="http://www.w3.org/2000/svg" viewBox="0 0 150.78 437.65">
  <defs>
    <style>
      .cls-1 {
        fill: #7d1e2b;
      }

      .cls-1, .cls-2, .cls-3, .cls-4 {
        stroke-width: 0px;
      }

      .cls-2 {
        fill: #707869;
      }

      .cls-3 {
        fill: #d97a66;
      }

      .cls-4 {
        fill: #e7a295;
      }
    </style>
  </defs>
  <path class="cls-3" d="m28.41,85.25c3.16,2.62,6.32,5.24,9.48,7.85-3.11.08-6.29-.22-9.32.32-4.02.72-9.41-.98-10.82,5.02-.09.4,2.98,1.54,4.59,2.34,1.2,3.82,1.31,9.85,3.79,11.08,13.8,6.82,10.02,12.47-.19,18.51-8.12-1.63-16.49-3.57-19.88-12.13-3.03-7.66,3.3-11.49,8.16-15.92,3.76-3.42-1.4-3.04-2.46-3.5-5.65-2.46-11.73-5.87-10.4-13.55,1.34-7.74,8.35-8.5,14.58-9.87,1.13-.25,2.04-1.47,3.05-2.24-7.9-4.96-22.07-8.27-15.43-20.42,7.08-12.97,21.85-5.4,33.49-5.19,1.25,2.87,2.5,5.75,3.75,8.62-5.18-1.71-10.36-3.41-15.54-5.12,1.15,8.28,9.67,5.65,13.96,9.34,1.56,1.34,3.8,1.89,5.73,2.81,2.22,2.41,4.43,4.81,6.65,7.22-3.74-1.28-7.4-3.06-11.24-3.72-6.61-1.14-13.33-1.58-20.01-2.31,2.78,7.94,11.34,1.93,15.55,6.44-2.75,3.52-5.5,7.04-8.25,10.57-4.1.66-8.21,1.26-12.26,2.15-.28.06-.06,2.36-.07,3.61,4.36-.64,8.72-1.27,13.08-1.91Z"/>
  <path class="cls-3" d="m61.86,22.95c4.4,11.78,9.63,23.71-12.09,14.72-6-2.49-10.18,2.74-12.55,8.33-6.32-6.89-15.06-14.91-8.01-23.96,7.95-10.22,19.13-1.67,28.87.27.54.07,1.08.14,1.63.21l2.15.43Z"/>
  <path class="cls-4" d="m59.71,22.51c-.54-.07-1.08-.14-1.63-.21.54.07,1.08.14,1.63.21Z"/>
  <path class="cls-1" d="m35.92,70.83c-4.76-3.59-20.78.15-15.55-6.44,4.18-5.26,13.4,1.17,20.01,2.31,3.85.66,7.5,2.44,11.24,3.72-5.24.14-10.47.27-15.7.41Z"/>
  <path class="cls-1" d="m22.35,100.79c-1.6-.8-4.59-.74-4.59-2.34,0-6.17,6.8-4.31,10.82-5.02,3.03-.54,6.21-.24,9.32-.32.89,1,1.79,2,2.68,3-3.56.43-7.14.73-10.68,1.33-2.05.35-4.02,1.19-6.03,1.81-.33.27-.65.54-.98.81-.2.24-.38.48-.55.74Z"/>
  <path class="cls-1" d="m44.97,63.2c-1.93-.91-4.4-1.23-5.73-2.81-.7-.83-20.39-3.98-13.96-9.34,4.19-3.5,10.36,3.41,15.54,5.12,1.38,2.34,2.77,4.68,4.15,7.02Z"/>
  <path class="cls-1" d="m28.41,85.25c-4.36.64-9.76,4.81-13.08,1.91-.95-.83-.63-3.3.07-3.61,3.8-1.66,8.16-1.48,12.26-2.15.25,1.28.5,2.57.75,3.85Z"/>
  <path class="cls-3" d="m22.89,100.05c.33-.27.65-.54.98-.81-.33.27-.65.54-.98.81Z"/>
  <path class="cls-4" d="m97.56,138.97c-14.08,12.84-31.34,12.69-47.98,9.24-9.47-1.96-22.05-3.69-23.63-17.83,10.22-6.04,13.99-11.69.19-18.51-2.48-1.23-4.32-7.12-3.79-11.08.04-.3.33-.53.55-.74.3-.3.6-.61.98-.81,1.85-1,3.98-1.46,6.03-1.81,3.53-.6,7.11-.9,10.68-1.33l-2.68-3c-3.16-2.62-7.39-4.32-9.48-7.85-.67-1.12-1.05-2.58-.75-3.85,1.04-4.35,4.26-8.55,8.25-10.57,4.67-2.36,10.47-.27,15.7-.41-2.22-2.41-4.7-4.59-6.65-7.22-1.62-2.18-2.91-4.6-4.15-7.02-1.43-2.79-3.27-5.52-3.75-8.62-.08-.52.03-1.05.16-1.56,1.5-5.89,6.54-10.82,12.55-8.33,21.72,8.99,16.49-2.94,12.09-14.72-.81-7.36-1.98-15.42,6.15-19.23,7.94-3.72,13.99,1.42,19.73,6.63,22.18,20.12,31.66,46.21,35.55,74.95.11.84-1.07,1.86-1.65,2.8-4.04-5.16-.54-18.01-9.76-15.94-8.18,1.84-4.5,12.95-3.52,19.9,1.03,7.34.2,8.82-6.9,5.35-2.4-1.17-7.54-.42-9.23,1.44-3.15,3.48-.2,7.27,2.83,9.75,5.04,4.12,7.58,6.46-1.32,9.42-10.73,3.56,3.07,12.35-2.57,17.65,2.13,1.1,4.27,2.19,6.4,3.29Z"/>
  <path class="cls-2" d="m124.12,86.14c-.03-.11-.1-.2-.16-.3-3.07-5.54.67-16.99-8.47-14.93-8.18,1.84-12.04,4.41-7.14,21.15,1.03,7.34.2,8.82-6.9,5.35-2.4-1.17-7.54-.42-9.23,1.44-3.15,3.48-.2,7.27,2.83,9.75,5.04,4.12,7.58,6.46-1.32,9.42-10.13,3.37.93,12.05-2.49,17.4-.34.53-.13,1.24.44,1.53,1.5.77,3.01,1.54,4.51,2.32.41.21.92.13,1.26-.19,19.2-18.4,29.09-12.54,33.86,12.03,13.01,66.98,10.66,134.26,5.86,201.67,0,0-4.11,67.12-4.08,67.26-.35,3.71-1,8.96-2.15,12.94-.21.71.08,1.49.66,1.78l1.63.83c.62.32,1.34-.06,1.56-.84,1.65-5.66,2.36-13.29,2.62-16.92,2.76-25.97,4.8-56,7.36-81.03,8.64-84.34,5.07-169.49-20.65-250.65Z"/>
</svg>