<?xml version="1.0" encoding="UTF-8"?>
<svg id="Layer_5" data-name="Layer 5" xmlns="http://www.w3.org/2000/svg" xmlns:xlink="http://www.w3.org/1999/xlink" viewBox="0 0 1920 1080">
  <defs>
    <style>
      .cls-1 {
        fill: none;
      }

      .cls-1, .cls-2, .cls-3, .cls-4, .cls-5, .cls-6 {
        stroke-width: 0px;
      }

      .cls-2 {
        fill: #69a851;
      }

      .cls-3 {
        fill: #8a8c8e;
      }

      .cls-4 {
        fill: #846a4a;
      }

      .cls-7 {
        clip-path: url(#clippath);
      }

      .cls-5 {
        fill: #7c7f82;
      }

      .cls-6 {
        fill: #668251;
      }
    </style>
    <clipPath id="clippath">
      <rect class="cls-1" x="0" width="1920" height="1080"/>
    </clipPath>
  </defs>
  <g class="cls-7">
    <g>
      <g>
        <path class="cls-2" d="m1963.44,554.12s-59.28-25.25-64.38,26.49c0,0-41.4-23.38-30.17,13.04,0,0-31.26,2.02-11.65,35.35,0,0-34.25,12.96-31.35,20.27,0,0-7.91-54.87-20.3,1.27,0,0-57.45,6.91-42.51,24.3,0,0-63.85,20.22-36.17,59.7,0,0-25.61,29.49-2.83,47.63,0,0-29.36-13.99-37.7,22.33,0,0-81.6-27.38-68.68,42.58,0,0-30.59,12.73-13.46,32.47,0,0-98.21-12.61-52.17,26.15,0,0-23.14,73.45-22.96,76.36s88.72,128.5,88.72,128.5l429.99,18.97-40-578.59-44.38,3.18Z"/>
        <polygon class="cls-2" points="1612.55 881.94 1563.42 865.34 1599 886.95 1612.55 881.94"/>
        <polygon class="cls-2" points="1618.36 857.44 1608.52 817.26 1626.46 843.61 1618.36 857.44"/>
        <polygon class="cls-2" points="1693.23 816.14 1666.54 780.34 1672 795.73 1649.01 789.81 1678.73 812.88 1693.23 816.14"/>
        <path class="cls-2" d="m1729.78,780.31s-34.5-11.24-32.91-10.55,30.6,20.67,30.6,20.67l2.32-10.12Z"/>
        <polygon class="cls-2" points="1727.39 742.13 1709.18 709.14 1733.6 732.29 1727.39 742.13"/>
        <polygon class="cls-2" points="1769.17 676 1735.68 674.93 1745.4 679.58 1724.07 688.78 1762.21 679.84 1769.17 676"/>
        <polygon class="cls-2" points="1810.88 652.39 1774.54 646.78 1805.03 657.48 1810.88 652.39"/>
        <polygon class="cls-2" points="1823.98 656.3 1826.12 624.67 1832.01 653.18 1823.98 656.3"/>
        <polygon class="cls-2" points="1862.08 632.4 1839.27 612.82 1851.03 628.36 1837.72 629.19 1862.08 632.4"/>
        <polygon class="cls-2" points="1903.84 584.64 1886.01 562.65 1895.8 587.77 1903.84 584.64"/>
      </g>
      <g>
        <path class="cls-3" d="m1177.11,1087.32l-12.41-17.59s75.01-72.42,86.9-72.42,46.04-26.38,50.69-28.97,56.9-56.9,68.28-56.9,12.93-13.97,22.76-12.41,48.11-13.82,61.04-12.08,28.45-11.45,42.42-10.81,37.04-20.7,66.63-10.81,57.52,2.81,69.94,21.61,66.32,36.91,75.83,57.6,61.83,42.93,59.98,57.93,22.55,15.52,23.55,30,53.32,13.45,45,38.28.9,64.14.9,64.14l-645.98-11.38-15.52-36.21Z"/>
        <path class="cls-5" d="m1244.87,1124.45s-42.93-49.03-37.24-56.27,58.45-61.04,75.52-57.93,62.07-32.07,81.73-32.07,20.69-46.55,48.62-47.59,116.26-34.26,138.56-24.89,83.11,54.38,96.94,78.69,76.38,11.09,97.61,29.86,55.37,49.65,55.88,65.76,8.38,54.42,8.38,54.42l-566.02-9.97Z"/>
        <path class="cls-3" d="m1284.21,1125.14s-54.33-52.31-40.36-62.13,58.97-60,90.01-56.9,43.45-45.52,62.07-47.59,78.11-48.11,125.18-36.21,71.38,5.17,94.14,37.24,22.24,52.24,64.14,52.76,67.25,2.59,82.76,20.69,30.4,36.73,26.32,55.87,17.6,32.19-13.93,36.27-33.08,9.77-33.08,9.77l-457.25-9.77Z"/>
        <path class="cls-5" d="m1369.05,1126.95l-51.75-10.15s0-47.07,19.66-50.69,21.73-57.93,47.59-61.04,34.14-20.17,41.38-21.73,79.66,7.61,97.25,35.88,40.09,17.56,55.74,35.84,70.48,34.32,59.1,48.29,1.54,31.07,1.54,31.07l-270.5-7.47Z"/>
        <path class="cls-3" d="m1332.24,1119.73s6.78-52.73,29.54-60.93,9.31-52.69,32.07-47.52,8.28-26.49,41.38-12.47,70.87,13.17,98.67,37.68,59.4,31.68,54.08,49.27,19-11.47,29.85,24.78,0,23.87,0,23.87l-285.6-14.69Z"/>
      </g>
      <path class="cls-4" d="m1248.5,1101.42s-4.71-52.44-12.18-58.31l-6.05-5.2s0-16.76-4.2-21.01-2.03-7.97-8.7-9.92l-5.1-1.28,10.62-3.26-8.26-3.53,10.28-5.36-23.11-.82s-2.35-3.74-22.02-2.26c-19.68,1.49-28.74-.68-28.74-.68l-30.07,2.45s-17.04-5.62-29.99-5.57-1-6.03-16.47-5.21c-15.47.82-48.59-.45-48.59-.45,0,0-19.33-1.48-33.7,3.67,0,0-41.42-6.27-55.46-4.65-14.04,1.62-31.91,7.57-40.21,7.92s-24.2.62-39.18-1.26c-14.97-1.87-36.32-16.4-48.19-17.78-11.86-1.39-23.43-2.22-23.43-2.22,0,0-16.51-12.39-21.74-13.25-5.23-.85-8.87-5.41-8.87-5.41,0,0-3.65.52-2.16,3.72s-4.01-2.57-8.75-.62c-4.74,1.95-7.15,1.17-7.74,5.55s-.95,7.06-.95,7.06c0,0-3.5-4.7-5.71-2.95s-2.05,7.94-2.05,7.94l4.61,4.11s-.54.86.4,4.78,3.27,6.68,3.27,6.68c0,0-44.73-3.65-55.68,3.1,0,0-26.04-10.6-44.25-6.9s-19.59-.77-27.62-.71c-8.02.06-25.5,4.87-25.5,4.87,0,0-35.1-7.13-40.96-4.87-5.86,2.26-10.18,9.55-10.18,9.55l-4.74,13.07s-4.38-.73-9.59,10.38-8.84,17.69-8.84,17.69c0,0-4.65-.16-6.85,7.5l-1.73,9.62s-5.3,1.82-2.9,7.96c0,0-4.49,6.31-1.4,11.58,0,0-5.98,8.32-2.45,14.42,0,0-5.22,6.89-.65,14.1,0,0-3.15,7.97.46,11.53l755.3-5.78Z"/>
      <path class="cls-6" d="m554.38,1101.06s-6.04-81.53-50.75-66.83c0,0,15.63-30.33-11.04-22.9,0,0,26.23-12.68,7-28.86,0,0,61.21-5.25,27.98-22.74,0,0,14.43-26.23-10.49-15.74,0,0,38.48-50.72,2.62-39.35,0,0,19.68-88.32-34.1-59.47,0,0,21.42-19.68,0-13.99,0,0-26.67-88.76-76.95-48.1,0,0,23.17-52.03-16.62-31.48,0,0,30.61-28.42,0-25.36,0,0-1.75-57.24-33.67-48.93,0,0,6.56-21.31-24.92-15.19,0,0-3.06-51.31-49.85-19.83,0,0-2.62-16.18-20.99-6.12,0,0,15.74-37.17-28.86-29.73,0,0-5.25-42.85-20.11-16.62,0,0,2.62-22.25-24.49-8.5,0,0,10.06-48.78-45.47-40.03,0,0,.87-27.31-35.85-17.37,0,0,11.37-53.9-20.99-26.35,0,0-15.13-53.92-44.6-18.87,0,0-32.46-60.49-51.59-11.84l-5.25,634.2h568.99Z"/>
      <path class="cls-6" d="m464.87,834s8.62-30.38,0-74.37c0,0-2.72,38.13-7.26,48.54s7.26,25.83,7.26,25.83Z"/>
      <path class="cls-6" d="m373.27,727.9s23.58-30.83,16.32-50.79c0,0-8.16,36.73-29.93,38.09s13.6,12.7,13.6,12.7Z"/>
      <path class="cls-6" d="m118.44,540s30.82-20.59,62.79-22.68c0,0-41.48,13.77-56.45,32.37s-6.35-9.68-6.35-9.68Z"/>
      <path class="cls-6" d="m232.7,637.21s27.21-11.34,37.18-39c0,0-6.35,27.21-24.49,48.07s-12.7-9.07-12.7-9.07Z"/>
      <path class="cls-6" d="m71.28,507.97s12.24-17.68,6.35-47.16c0,0-7.71,35.82-14.51,47.16s8.16,0,8.16,0Z"/>
      <path class="cls-6" d="m530.62,1085.21s6.8-58.04,28.11-57.59c0,0-31.61,10.68-36.14,22.47s8.03,35.11,8.03,35.11Z"/>
      <path class="cls-6" d="m390.98,783.67s11.89-30.12,38.71-36.14c0,0-23.71,11.66-28.76,33.81l-9.95,2.33Z"/>
      <path class="cls-6" d="m321.07,661.44s9.52-16.91,1.94-32.65c0,0-.58,23.51-8.55,27.2s6.61,5.44,6.61,5.44Z"/>
      <path class="cls-6" d="m173.19,580.61s12.24-13.6,13.21-31.48c0,0-12.05,27.4-25.65,37.7s12.44-6.22,12.44-6.22Z"/>
      <path class="cls-6" d="m72.15,485.34s-23.51-47.75-19.63-21.13,19.63,21.13,19.63,21.13Z"/>
      <path class="cls-6" d="m269.89,639.1s32.72-31.87,24.95-10.3-24.95,10.3-24.95,10.3Z"/>
    </g>
  </g>
</svg>