<?xml version="1.0" encoding="UTF-8"?>
<svg id="Layer_5" data-name="Layer 5" xmlns="http://www.w3.org/2000/svg" xmlns:xlink="http://www.w3.org/1999/xlink" viewBox="0 0 1920 1080">
  <defs>
    <style>
      .cls-1 {
        fill: none;
      }

      .cls-1, .cls-2, .cls-3, .cls-4, .cls-5, .cls-6, .cls-7 {
        stroke-width: 0px;
      }

      .cls-2 {
        fill: #9ab7f7;
      }

      .cls-3 {
        fill: #588774;
      }

      .cls-4 {
        fill: #579178;
      }

      .cls-8 {
        clip-path: url(#clippath);
      }

      .cls-5 {
        fill: #8cb0ed;
      }

      .cls-6 {
        fill: #457f74;
      }

      .cls-7 {
        fill: #54827c;
      }
    </style>
    <clipPath id="clippath">
      <rect class="cls-1" x="0" width="1920" height="1080"/>
    </clipPath>
  </defs>
  <g class="cls-8">
    <g>
      <rect class="cls-5" x="0" width="1920" height="672.81"/>
      <ellipse class="cls-2" cx="960" cy="217.38" rx="960" ry="319.28"/>
      <path class="cls-6" d="m1701,407c6,1,11,4,17,2,20-7,44-4,65-2,4,0,10-5,15-4,24,8,49,3,73-3,6-1,11,3,16,2,12.69-.63,24.98-3.68,37.38-5.31l-1-63.76-12.78,24.53-10.73-24.53-6.64,15.84s-8.18-20.19-8.18-21.46-8.69,41.91-8.69,41.91l-12.26-26.57-7.67,21.97s-10.22-38.58-10.22-39.86-12.78,35.77-12.78,35.77l-13.8-12.26v27.6l-14.82-40.37-13.8,40.37-5.11-33.22-11.75,17.89-11.75-31.68-6.78,18.88-7.02-28.08-16.35,39.86-5.62-12.26-6.13,27.6-5.11-21.97,5.11-27.09-19.42,22.49-12.27,34.24-7.15-15.84-7.15,14.31-7.67-24.81-25.12,46.06c.43.42.86.8,1.29.8,19,7,38,1,58,4Z"/>
      <path class="cls-3" d="m1924.38,396.69c-12.4,1.63-24.69,4.68-37.38,5.31-5,1-10-3-16-2-24,6-49,11-73,3-5-1-11,4-15,4-21-2-45-5-65,2-6,2-11-1-17-2-20-3-39,3-58-4-.43,0-.86-.37-1.29-.8v.02s-11.88-4.19-26.54,2.79c-14.66,6.98-97.73-9.77-97.73-9.77-50.26,2.09-80.98,23.74-80.98,23.74l-58.64,51.66-51.66,29.32-4.78,18.98,605.07,9.2-2.06-131.45Z"/>
      <path class="cls-3" d="m1780.98,491.55c-12.4,1.63-24.69,4.68-37.38,5.31-5,1-10-3-16-2-24,6-49,11-73,3-5-1-11,4-15,4-21-2-45-5-65,2-6,2-11-1-17-2-20-3-39,3-58-4-.43,0-.86-.37-1.29-.8v.02s-11.88-4.19-26.54,2.79c-14.66,6.98-97.73-9.77-97.73-9.77-50.26,2.09-80.98,23.74-80.98,23.74l-58.64,51.66-51.66,29.32-4.78,18.98,605.07,9.2-2.06-131.45Z"/>
      <path class="cls-3" d="m1946.8,496.77c-12.4,1.63-24.69,4.68-37.38,5.31-5,1-10-3-16-2-24,6-49,11-73,3-5-1-11,4-15,4-21-2-45-5-65,2-6,2-11-1-17-2-20-3-39,3-58-4-.43,0-.86-.37-1.29-.8v.02s-11.88-4.19-26.54,2.79c-14.66,6.98-97.73-9.77-97.73-9.77-50.26,2.09-80.98,23.74-80.98,23.74l-58.64,51.66-51.66,29.32-4.78,18.98,605.07,9.2-2.06-131.45Z"/>
      <path class="cls-7" d="m657.11,521.92c-2.99,1.38-39.34-27.5-56.76-29.99s-100.58-6.97-100.58-6.97v64.73l157.34-27.77Z"/>
      <path class="cls-7" d="m715.04,564.41c-2.38,3.26-49.42-45.14-67.48-46.44s-101.29,6.78-101.29,6.78l25.63,124.85,143.14-85.2Z"/>
      <path class="cls-3" d="m587.9,528.12s-84.65-67.57-107.55-73.04-41.83-6.97-48.8-6.97-26.39-12.45-53.78-11.95-115.52,14.94-115.52,14.94l124.48,103.57,201.16-26.54Z"/>
      <path class="cls-3" d="m686.74,599.33s-84.65-67.57-107.55-73.04-41.83-6.97-48.8-6.97-26.39-12.45-53.78-11.95-115.52,14.94-115.52,14.94l124.48,103.57,201.16-26.54Z"/>
      <path class="cls-6" d="m-10.95,392.04l8.38-6.82,7.36-1.1,2.37-7.2s6.4,5.03,4.22,7.28,7.58-6.91,8.03-2.91,3.08-6.66,3.08-6.66l-1-6.69s8.14,5.2,6.13,7.42,7.7-2.97,7.58,2.5c0,0,6.19-6.81,6.65-1.64,0,0,7.57-1.78,4.84,7.19l4.68-4.34s-1.72-6.26,6.07-1.34c0,0-2.35-8.63,2.27-6.97,0,0-.22-8.63,2.01-6.29,0,0,.48-9.37,5.14-11.68,0,0,0-11.55,4.75-10.12,0,0-9.15-3.55-5.5-11.58,0,0-.58-14.35,2.33-9.55,0,0-7.26-11.85,2.53-4.02,9.79,7.84,1.03,6.9,1.03,6.9,0,0,7.51-.06,6.83,5.82,0,0,8.43-2.33,7.52,2.08l-.75,5.46s8.72.25,2.74,6.57c0,0,9.13-2.68,7.45,4.95,0,0,8.84-.26,1.89,9.13,0,0,12.42-8.81,7.11,4.92,0,0,4.74,5.49-.62,8.43,0,0,12.25,3.3,2.66,15.64,0,0,13.67,2.44,6.46,9.72,0,0,8.13,2.31,3.54,5.46,0,0,8.94,6.15,3.49,11.88,0,0,4.81,13.5.51,18.31,0,0,8.22-.59,7.13,3.64,0,0,6.95-2.75,6.99.66,0,0,6.06.7,6.36,4.82,0,0,7.19-4.28,6.72.92,0,0,4.79,2.66,3.14,6.3S-3.65,475.63-3.65,475.63l-7.3-83.59Z"/>
      <path class="cls-4" d="m425.07,530.28s-131.45-108.06-170.79-113.04-121.49,0-121.49,0c0,0-39.83-12.45-66.72-12.95s-110.54,0-110.54,0l4.98,162.32,464.57-36.34Z"/>
      <path class="cls-4" d="m569.37,615.12s-167-108.06-216.98-113.04-154.35,0-154.35,0c0,0-50.61-12.45-84.77-12.95s-140.43,0-140.43,0l6.33,162.32,590.2-36.34Z"/>
    </g>
  </g>
</svg>