<?xml version="1.0" encoding="UTF-8"?>
<svg id="Layer_5" data-name="Layer 5" xmlns="http://www.w3.org/2000/svg" xmlns:xlink="http://www.w3.org/1999/xlink" viewBox="0 0 1920 1080">
  <defs>
    <style>
      .cls-1 {
        fill: #4786c4;
      }

      .cls-1, .cls-2, .cls-3, .cls-4, .cls-5, .cls-6, .cls-7, .cls-8, .cls-9, .cls-10, .cls-11 {
        stroke-width: 0px;
      }

      .cls-2 {
        fill: #725a72;
      }

      .cls-3 {
        fill: #5f9e7a;
      }

      .cls-4 {
        fill: none;
      }

      .cls-5 {
        fill: #10827f;
      }

      .cls-12 {
        clip-path: url(#clippath);
      }

      .cls-6 {
        fill: #409671;
      }

      .cls-7 {
        fill: #6aa86a;
      }

      .cls-8 {
        fill: #588959;
      }

      .cls-9 {
        fill: #2d8e80;
      }

      .cls-10 {
        fill: #549386;
      }

      .cls-11 {
        fill: #668251;
      }
    </style>
    <clipPath id="clippath">
      <rect class="cls-4" x="0" width="1920" height="1080"/>
    </clipPath>
  </defs>
  <g class="cls-12">
    <g>
      <path class="cls-3" d="m-11.99,505.75l251.34,30.92s6.55-12.4,3.98-26.29c0,0,.56,4.53-3.96,14.02,0,0,.84-15.89-.55-25.73,0,0-.74,10.88-2.18,20.93l-5.26-11.81.13,17.13-4.14-8.69-1.08,8.79s-6.74-7.15-3.51-19.77c0,0-3.8,11.25-3.81,18.87,0,0,1.56-11.15-5.45-25.22,0,0,3.3,13.24,1.64,19.54,0,0-2.4-8.85-7.86-14.36,0,0,3.3,11.01,2.83,16.34,0,0-9.67-18.11-9.62-24.62,0,0,.13,17.13,1.24,23.21,1.11,6.09-6.77-20.55-6.77-20.55l.5,20.15-3.28-12.68-3.78,12.55s-3.42-14.55,1.33-22.9c0,0-9.48,13.53-8.48,20.53l-3.43-20.51-1.42,20.65-3.37-11.94-2.54,11.59s-3.62-14.39,2.52-23.5c0,0-9.19,6.68-8.75,19.75,0,0-3.41-13.07-1.28-19.87,0,0-3.79,7.53-4.17,15.48l-3.76-13.11-2.43,19.79-3.46-13.44-1.44,11.73s-3.76-12.37-2.26-19.99c0,0-4.24,8.78-3.73,15.16l-2.45-13.32-2.72,15.02-2.33-8.57-3.53,10.65s-7.58-18.72-18.09-27.08c0,0,7.45,12.63,4.24,20.98l-3.92-10.9-1.53,12.46s-7.92-7.3-6.07-20.83c1.85-13.53-6.16,10.77-3.85,22.22,0,0,.12-8.54-4.48-21.01,0,0,.04,8.75-.84,15.89l-4.01-12.77-1.48,15.07-2.27-11.81-2.96,8.93s-3.39-11.69,1.19-19.31c0,0-9.71,9.61-8.5,19.19,0,0,0-9.32-4.46-19.19,0,0-.77,14.57-.86,19.9-.09,5.33-6.29-15.44-3.91-23.67,0,0-5.83,12.24-2.59,22.88l-4.46-17.37s1.22,15.73.27,16.18-3.11-9.71-3.11-9.71l-2.08,9.52s-3.93-10.6,1.7-19.35c0,0-10.12,8.31-9.18,17.29,0,0-2.34-7.79-.03-14.56,0,0-7.21,7.75-6.24,13.78l-.65-15.09-5.04,15.07.51-9.71-6.25,11.97-.82-17.38-4,15.88-2.37-10.3-3.96,9.97s-2.42-8.94,5.42-20.03c0,0-11.55,6.99-11.52,21.55l-3.61-14.77-1.82,14.78-3.72-12.51-.9,11.03-2.54-8.95-5.86,10.65s1.73-13.43,5.71-18.85"/>
      <path class="cls-2" d="m1537.29,475.66s6.06-10.87,12.54-6.69c0,0,17.17-8.83,36.4-1.18,0,0,5.32-15.8,12.36-6.1,0,0,16.39-14.7,12.65-3.15,0,0,2.87-5.69,9.2,3.15,0,0,20.68-4.36,20.99,3.2,0,0,14.8-4.85,25.01,7.79,0,0,14.84-14.56,24.15-6.61,0,0,2.73-10.73,13.8-1.18,0,0-7.19-13.48,4.6-6,0,0-7.1-7.6,22.14,3.74,0,0,3.02-6.47,20.41,6.04,0,0,2.87-12.22,17.39,0,0,0,16.53-7.76,23.86-1.72,0,0,23.14-7.33,19.55,2.59,0,0,5.45-6.47,17.54-.86,0,0,24.87-10.35,18.69-1.44,0,0,18.65-8.7,17.54-.57,0,0,12.79-2.01,20.41,7.47,0,0,15.24-11.97,12.36-2.9,0,0,13.37-6.88,17.54,2.61,0,0,16.1-17.44,15.52-2.61s-1.72,42.86-1.72,42.86l-310.19,6.9-66.41-5.32-.86-36.8-15.45-3.2Z"/>
      <path class="cls-7" d="m1454.98,533.35l153.5,20.55s4.08-7.54,2.6-16.05c0,0,.31,2.78-2.51,8.55,0,0,.62-9.71-.17-15.74,0,0-.52,6.65-1.47,12.79l-3.14-7.25-.04,10.47-2.48-5.34-.72,5.37s-4.08-4.42-2.02-12.12c0,0-2.4,6.85-2.45,11.52,0,0,1.03-6.81-3.17-15.46,0,0,1.93,8.12.88,11.96,0,0-1.41-5.43-4.71-8.83,0,0,1.94,6.75,1.62,10.01,0,0-5.8-11.14-5.72-15.12,0,0-.04,10.47.6,14.2s-4.01-12.61-4.01-12.61l.17,12.32-1.92-7.77-2.39,7.65s-1.99-8.92.96-13.99c0,0-5.88,8.21-5.32,12.5l-1.96-12.56-1.01,12.62-1.98-7.33-1.63,7.07s-2.12-8.83,1.69-14.35c0,0-5.66,4.03-5.48,12.02,0,0-2-8.01-.65-12.16,0,0-2.36,4.58-2.65,9.44l-2.22-8.04-1.62,12.08-2.03-8.24-.96,7.16s-2.22-7.59-1.25-12.24c0,0-2.65,5.34-2.38,9.25l-1.41-8.16-1.76,9.17-1.37-5.26-2.23,6.49s-4.52-11.5-10.88-16.68c0,0,4.47,7.77,2.46,12.86l-2.32-6.69-1.02,7.61s-4.8-4.51-3.58-12.78-3.84,6.55-2.5,13.56c0,0,.13-5.22-2.6-12.88,0,0-.03,5.35-.62,9.71l-2.37-7.83-1,9.2-1.31-7.24-1.87,5.44s-1.99-7.17.85-11.8c0,0-6,5.81-5.32,11.68,0,0,.07-5.7-2.6-11.77,0,0-.57,8.91-.65,12.17-.09,3.26-3.74-9.48-2.24-14.5,0,0-3.64,7.45-1.73,13.97l-2.61-10.65s.64,9.62.06,9.89-1.84-5.96-1.84-5.96l-1.33,5.81s-2.33-6.51,1.16-11.82c0,0-6.24,5.01-5.72,10.51,0,0-1.38-4.78.08-8.9,0,0-4.46,4.69-3.91,8.39l-.3-9.23-3.18,9.18.38-5.94-3.9,7.28-.39-10.63-2.55,9.68-1.38-6.31-2.48,6.07s-1.42-5.48,3.44-12.21c0,0-7.11,4.2-7.18,13.1l-2.11-9.06-1.21,9.03-2.19-7.67-.62,6.74-1.49-5.49-3.65,6.47s1.14-8.2,3.61-11.49"/>
      <path class="cls-7" d="m1945.11,480.92l-453.4-8.82-211.7,4.41-208.17,15-128.79,19.41-151.72,11.06-90.76-8.41s-77.73,5.71-102.43,8.36-119.07-3.89-168.47.05-227.58,0-227.58,0c0,0-98.98-24.71-201.65-24.06s-87.67,630.47-87.67,630.47l2057.05,15.88-24.7-663.34Z"/>
      <path class="cls-10" d="m791.33,521.96s16.66,5.85,11.23,6.17,120.18,2.14,120.18,2.14l-16.03-16.72-115.38,8.41Z"/>
      <path class="cls-1" d="m802.57,528.14h145.14s215.27-2.67,357.37,57.7c0,0,31.87,18.67-71.96,32.93,0,0-143.92,45.13-17.08,73.18,0,0,73.79,32.93-41.47,47.57s-182.34,17.08-247.6,14.64-246.38,9.76-192.71-36.59c0,0,110.99-28.66,92.7-51.23s-134.12-55.83-190.27-64.64c-50.24-7.89-6.43-35.69,25.28-42.4s105.84-10.81,140.6-31.16Z"/>
      <path class="cls-3" d="m1573.04,479.85l74.26,1.68s1.55-3.81.39-7.79c0,0,.3,1.31-.75,4.21,0,0-.22-4.66-.91-7.49,0,0,.1,3.2-.03,6.17l-1.88-3.29.54,4.99-1.46-2.42-.06,2.6s-2.18-1.89-1.6-5.67c0,0-.78,3.39-.56,5.62,0,0,.13-3.3-2.33-7.2,0,0,1.35,3.77,1.05,5.66,0,0-.96-2.51-2.71-3.96,0,0,1.28,3.12,1.3,4.69,0,0-3.35-5-3.53-6.9,0,0,.54,4.99,1.04,6.74s-2.58-5.8-2.58-5.8l.73,5.87-1.33-3.6-.74,3.77s-1.42-4.15-.28-6.72c0,0-2.37,4.22-1.87,6.24l-1.6-5.88.19,6.07-1.33-3.39-.4,3.46s-1.48-4.1.05-6.93c0,0-2.49,2.22-1.98,6.02,0,0-1.38-3.71-.95-5.76,0,0-.88,2.31-.77,4.64l-1.48-3.72-.13,5.85-1.4-3.82-.08,3.46s-1.46-3.5-1.24-5.77c0,0-.98,2.69-.64,4.53l-1.1-3.82-.36,4.46-.93-2.43-.72,3.21s-2.76-5.24-6.07-7.37c0,0,2.54,3.47,1.85,6l-1.46-3.07-.08,3.68s-2.53-1.9-2.38-5.9-1.48,3.32-.47,6.6c0,0-.21-2.5-1.92-6,0,0,.27,2.55.22,4.66l-1.54-3.61v4.44s-1-3.38-1-3.38l-.6,2.69s-1.33-3.31-.22-5.67c0,0-2.55,3.09-1.92,5.85,0,0-.27-2.72-1.86-5.47,0,0,.2,4.28.33,5.83s-2.29-4.32-1.83-6.8c0,0-1.34,3.74-.09,6.75l-1.81-4.94s.81,4.55.55,4.71-1.19-2.74-1.19-2.74l-.33,2.84s-1.46-2.98-.07-5.7c0,0-2.71,2.72-2.17,5.31,0,0-.91-2.21-.43-4.25,0,0-1.88,2.47-1.42,4.21l-.63-4.38-1.03,4.55-.13-2.85-1.47,3.67-.75-5.05-.7,4.75-.99-2.94-.86,3.03s-.97-2.54,1-6c0,0-3.17,2.38-2.73,6.63l-1.49-4.2-.1,4.37-1.45-3.54.06,3.25-1-2.54-1.4,3.28s.11-3.97,1.12-5.67"/>
      <path class="cls-7" d="m1526.18,479.85l74.26,1.68s1.55-3.81.39-7.79c0,0,.3,1.31-.75,4.21,0,0-.22-4.66-.91-7.49,0,0,.1,3.2-.03,6.17l-1.88-3.29.54,4.99-1.46-2.42-.06,2.6s-2.18-1.89-1.6-5.67c0,0-.78,3.39-.56,5.62,0,0,.13-3.3-2.33-7.2,0,0,1.35,3.77,1.05,5.66,0,0-.96-2.51-2.71-3.96,0,0,1.28,3.12,1.3,4.69,0,0-3.35-5-3.53-6.9,0,0,.54,4.99,1.04,6.74s-2.58-5.8-2.58-5.8l.73,5.87-1.33-3.6-.74,3.77s-1.42-4.15-.28-6.72c0,0-2.37,4.22-1.87,6.24l-1.6-5.88.19,6.07-1.33-3.39-.4,3.46s-1.48-4.1.05-6.93c0,0-2.49,2.22-1.98,6.02,0,0-1.38-3.71-.95-5.76,0,0-.88,2.31-.77,4.64l-1.48-3.72-.13,5.85-1.4-3.82-.08,3.46s-1.46-3.5-1.24-5.77c0,0-.98,2.69-.64,4.53l-1.1-3.82-.36,4.46-.93-2.43-.72,3.21s-2.76-5.24-6.07-7.37c0,0,2.54,3.47,1.85,6l-1.46-3.07-.08,3.68s-2.53-1.9-2.38-5.9-1.48,3.32-.47,6.6c0,0-.21-2.5-1.92-6,0,0,.27,2.55.22,4.66l-1.54-3.61v4.44s-1-3.38-1-3.38l-.6,2.69s-1.33-3.31-.22-5.67c0,0-2.55,3.09-1.92,5.85,0,0-.27-2.72-1.86-5.47,0,0,.2,4.28.33,5.83s-2.29-4.32-1.83-6.8c0,0-1.34,3.74-.09,6.75l-1.81-4.94s.81,4.55.55,4.71-1.19-2.74-1.19-2.74l-.33,2.84s-1.46-2.98-.07-5.7c0,0-2.71,2.72-2.17,5.31,0,0-.91-2.21-.43-4.25,0,0-1.88,2.47-1.42,4.21l-.63-4.38-1.03,4.55-.13-2.85-1.47,3.67-.75-5.05-.7,4.75-.99-2.94-.86,3.03s-.97-2.54,1-6c0,0-3.17,2.38-2.73,6.63l-1.49-4.2-.1,4.37-1.45-3.54.06,3.25-1-2.54-1.4,3.28s.11-3.97,1.12-5.67"/>
      <path class="cls-7" d="m190.33,532.7l171.16,6.92s3.73-8.72,1.23-17.95c0,0,.63,3.02-1.89,9.67,0,0-.31-10.76-1.8-17.32,0,0,.1,7.38-.31,14.23l-4.2-7.67,1.03,11.54-3.27-5.63-.24,5.99s-4.94-4.45-3.46-13.14c0,0-1.94,7.79-1.52,12.94,0,0,.43-7.61-5.07-16.7,0,0,2.96,8.74,2.19,13.09,0,0-2.11-5.83-6.09-9.24,0,0,2.83,7.24,2.81,10.86,0,0-7.53-11.68-7.85-16.06,0,0,1.03,11.54,2.12,15.58,1.09,4.04-5.7-13.48-5.7-13.48l1.45,13.56-2.91-8.37-1.85,8.67s-3.11-9.62-.37-15.51c0,0-5.64,9.64-4.58,14.31l-3.45-13.64.18,14-2.93-7.87-1.07,7.95s-3.24-9.5.4-15.98c0,0-5.83,5.01-4.81,13.8,0,0-3.03-8.62-1.96-13.33,0,0-2.14,5.29-1.95,10.67l-3.26-8.63-.54,13.47-3.08-8.87-.32,7.99s-3.22-8.13-2.63-13.35c0,0-2.37,6.15-1.67,10.43l-2.39-8.84-1.01,10.28-2.05-5.65-1.79,7.38s-6.15-12.2-13.69-17.25c0,0,5.72,8.1,4.02,13.91l-3.24-7.13-.34,8.48s-5.75-4.48-5.25-13.71-3.56,7.6-1.36,15.19c0,0-.39-5.76-4.19-13.92,0,0,.51,5.89.31,10.76l-3.41-8.39-.16,10.24-2.18-7.84-1.5,6.19s-2.93-7.69-.27-13.09c0,0-6.01,7.01-4.67,13.41,0,0-.51-6.29-4.07-12.69,0,0,.29,9.87.53,13.47.24,3.6-5.09-10.06-3.95-15.74,0,0-3.25,8.58-.48,15.57l-3.97-11.47s1.69,10.53,1.08,10.89-2.63-6.37-2.63-6.37l-.88,6.53s-3.23-6.93.07-13.14c0,0-6.36,6.16-5.23,12.16,0,0-2.01-5.12-.83-9.81,0,0-4.43,5.63-3.45,9.64l-1.27-10.14-2.56,10.44-.19-6.58-3.55,8.41-1.51-11.67-1.82,10.93-2.17-6.81-2.11,6.94s-2.13-5.89,2.54-13.8c0,0-7.4,5.35-6.57,15.17l-3.25-9.76-.41,10.07-3.2-8.23v7.49s-2.2-5.9-2.2-5.9l-3.36,7.5s.42-9.15,2.8-13.03"/>
      <path class="cls-11" d="m1499.08,516.87s-.73-6.94,16.45-8.24c0,0-10.68-3.46,5.81-6.44,0,0-29.39,3.37-16.52-2.63,0,0,1.02-5.25,9.52-4.47,0,0,.04-7.18,11.57-5.83,0,0,7.34-7.4,21.74-6.14,0,0,5.82-10.36,12.88-5.61,0,0,9.37-5.23,19.26-1.95,0,0,17.7-1.65,25.38,2.16,0,0,6.45-6.06,18.42-1.34,0,0,12.82-5.74,25.62-1.04,0,0,11.77-3.49,22.98.35,0,0,7.97-4.03,11.73-.36,0,0,10.57-4.24,10.69-.32,0,0,7.45-4.01,14.35-.17,0,0,10.99-4.32,23.26.37,0,0,11.18-5.07,11.95-1.17,0,0,9.92-4.22,9.65-.29,0,0,7.92-5.59,24.77-.75,0,0,5.76-3.7,19.85.44,0,0,12.71-6.91,23.45-1.49,0,0,10.95-4.64,14.09-.17,0,0,9.6-6.29,17.2-.78,0,0,16.56-4.63,16.21.9,0,0,12.02-4.68,18.78,1.4,0,0,13.66-7.44,18.06,0,0,0,10.11-10.75,21.24,3.27l-97.91,33.25-196.03,16.91-114.09-5.41-20.36-4.43Z"/>
      <path class="cls-5" d="m1607.64,545.1s-48.51-.43-30.19-6.9c0,0-37.95.65-21.99-6.47,0,0-35.89.86-23.55-6.47,0,0-19.57,6.04-16.12,0,0,0-21.78,2.59-15.09-3.88,0,0-47,8.62-33.64,0,0,0-45.71,8.62-15.52-.86,0,0,12.29-8.62,23.72-6.47,0,0,7.33-9.06,18.11-6.04,0,0,18.97,2.16,21.56,6.04,0,0,11.21-11.09,23.29-4.79,0,0,5.61-8.23,19.41-1.94,0,0,14.66-9.54,28.46,1.94,0,0,4.96-9.01,11.64-2.97,0,0,.65-17.46,18.54-7.76,0,0,12.51-6.68,25.45,7.33,0,0-3.24-18.81,9.05-10.27,0,0,1.51-14.16,27.6-.44,0,0,13.37-6.55,35.36,9.41,0,0,10.46-7.98,18.81.43,0,0,20-13.15,23.45-1.72,0,0,5.17-10.13,19.41,1.72,0,0,11.86-11,24.58.43,0,0-.65-14.08,10.35-10.27,0,0,6.04-3.8,10.78,0,0,0,7.51-6.76,15.14-2.65,0,0,4.5-9.2,14.68-5.48,0,0,7.92-4.79,17.41.39,0,0,3.52-9.69,9.78-5.87,0,0,5.67-7.34,10.37-1.96,0,0,7.83-3.82,10.96-.2,0,0,5.58-3.33,13.21.88,0,0,12.23-4.89,10.57-1.37l.16,51.07-174.4,11.74-141.32,3.38Z"/>
      <path class="cls-9" d="m1628.12,582.19c-1.29-.22-40.53,1.72-31.91-5.17,0,0-32.13,1.72-17.25-4.74,0,0-12.72-4.1-.86-5.61,0,0-9.27-11.21,8.19-9.06,0,0,.98-5.08,14.29-.28,0,0-2.43-6.41,7.7-4.47,0,0-4.74-17.32,9.92-12.87,0,0-7.98-11.71,12.94-5.68,0,0,6.47-4.97,15.09-1.73,0,0-2.16-7.84,9.06-4.46,0,0-10.56-19.9,4.31-14.08,0,0-3.88-9.92,26.74,3.02,0,0,13.15-10.13,22.85,6.47,0,0,4.53-8.92,20.27,4.6,0,0,12.94-5.57,19.84-.02,0,0,8.84-7.6,13.8-.7l4.31-13.8,2.16,14.51s10.13-12.57,13.8-4.16c0,0,2.59-10.35,12.07-2.59s23.29,6.73,23.29,6.73c0,0,1.08-12.56,10.35-5.01,0,0,20.48-10.56,20.27-4.53,0,0,8.41-10.35,18.11-2.16,0,0,17.68-11.43,15.09-.43,0,0,9.92-12.07,10.78-3.88s12.07,30.62,12.07,30.62l-37.52,32.77-239.76,6.68Z"/>
      <path class="cls-6" d="m1707.05,776.06l-14.85-17.13v-13.7l-18.27-6.28s15.99-10.28,21.13-5.71-15.42-15.7-4.57-15.42-16.56-7.42-16.56-7.42h-18.27s17.13-13.42,22.27-9.14-4.85-14.85,9.71-13.13c0,0-15.7-13.13-1.71-12.56,0,0-1.71-14.27,21.13-6.85l-9.71-9.71s-17.41,1.43-1.14-11.42c0,0-23.98,1.92-17.7-6.03,0,0-23.12-1.96-15.99-5.38,0,0-24.84-3.43-29.12-12.56,0,0-30.83-3.14-25.12-11.42,0,0-13.13,15.7-33.12,6.85,0,0-38.54-2.85-24.55-6.85,0,0-34.54,9.99-9.71-5.71s18.84,0,18.84,0c0,0,2.85-13.7,18.27-10.85,0,0-2.85-15.99,8.56-13.13l14.27,2.85s4.15-15.81,18.63-3.2c0,0-3.5-17.36,16.2-12.22,0,0,2.85-16.18,25.12-.95,0,0-18.56-25.03,15.99-11.61,0,0,16.56-7.14,22.27,3.43,0,0,13.7-21.41,42.82-.57,0,0,11.99-24.23,28.55-9.12,0,0,9.42-14.19,15.99-4.96,0,0,19.98-14.6,33.12-3.12,0,0,37.97-5.07,49.1,4.06,0,0,1.71-15.13,12.56-11.99,0,0-4.57-13.42,4.57-12.56,0,0,4.28-10.85,15.42-10.28,0,0-8.54-14.27,5.14-11.99,0,0,9.01-7.99,18.06-4s8.77,289.31,8.77,289.31l-226.11-9.53Z"/>
      <path class="cls-8" d="m1810.85,1050.28l-25.62-18.02-6.42-19.14-24.6-1.51s14.13-20.71,22.36-16.38c8.23,4.34-25.63-15.8-12.64-19.72,12.99-3.92-23.1-3.78-23.1-3.78l-21.66,7.27s14.01-25.55,22.11-21.62c8.1,3.94-12.71-18.81,5.35-22.2,0,0-24.77-12.1-7.92-16.86,0,0-8.72-19.26,21.83-17.97l-16.05-9.7s-19.97,8.92-6.71-15.5c0,0-27.52,12.22-23.81-1.39,0,0-28.33,6.46-21.47-1.16,0,0-31.04,5.09-40.4-5.96,0,0-38.02,7.88-35.13-5.96,0,0-8.21,27.15-36.04,22.74,0,0-47.02,11.34-32.31.19,0,0-36.26,27.7-14.18-4.11,22.08-31.81,22.33-7.49,22.33-7.49,0,0-3.04-20.28,16.57-22.42,0,0-10.88-21.2,4-21.75l18.26-1.69s-2.49-23.74,20.59-11.88c0,0-12.29-22.85,13.47-23.51,0,0-4.2-23.73,29.33-11.32,0,0-33.72-27.58,13.51-22.58,0,0,16.28-16.55,28-4.07,0,0,6.21-35.36,50.49-17.83,0,0,2.86-38.61,29.56-24.09,0,0,4.52-23.56,16.62-13.29,0,0,16.84-28.35,37.79-17.53,0,0,42.63-22.19,60.1-13.85,0,0-5.06-21.82,9.27-21.74,0,0-11.7-16.93-.47-19.36,0,0,0-16.86,13.45-20.49,0,0-16.82-16.54.47-18.79,0,0,6.93-14.75,19.54-12.77,12.61,1.98,146,400.6,146,400.6l-272.45,76.62Z"/>
      <path class="cls-7" d="m695.34,760.42l406.94,34.4s9.79-20.38,4.8-42.61c0,0,1.18,7.27-5.52,22.84,0,0,.38-25.66-2.47-41.44,0,0-.52,17.58-2.23,33.87l-9.21-18.7,1.25,27.59-7.21-13.75-1.2,14.24s-11.3-11.11-6.88-31.65c0,0-5.44,18.36-4.98,30.65,0,0,1.83-18.07-10.33-40.31,0,0,6.13,21.13,3.85,31.4,0,0-4.41-14.12-13.55-22.66,0,0,5.99,17.53,5.56,26.16,0,0-16.7-28.6-17.01-39.08,0,0,1.25,27.59,3.42,37.33,2.16,9.74-12.17-32.7-12.17-32.7l2.04,32.44-6.06-20.23-5.31,20.46s-6.4-23.25.74-36.98c0,0-14.44,22.38-12.4,33.61l-6.78-32.84-1.03,33.37-6.16-19.04-3.38,18.83s-6.72-22.97,2.62-38.02c0,0-14.4,11.33-12.89,32.37,0,0-6.3-20.85-3.27-31.94,0,0-5.64,12.37-5.77,25.2l-6.87-20.9-2.71,32.04-6.4-21.45-1.6,18.98s-6.82-19.7-4.88-32.08c0,0-6.3,14.41-5.07,24.67l-4.77-21.32-3.47,24.37-4.29-13.67-5.03,17.39s-13.37-29.7-30.81-42.52c0,0,12.77,19.9,8.13,33.55l-6.98-17.32-1.71,20.17s-13.22-11.27-11.06-33.2-9.27,17.74-4.84,36.04c0,0-.33-13.77-8.51-33.58,0,0,.6,14.09-.38,25.66l-7.24-20.33-1.46,24.37-4.38-18.89-4.22,14.58s-6.17-18.63.73-31.2c0,0-15.06,16.08-12.52,31.45,0,0-.56-15.02-8.37-30.66,0,0-.35,23.53-.16,32.13.19,8.6-11.08-24.5-7.75-37.91,0,0-8.64,20.09-2.76,37.02l-8.25-27.73s2.93,25.27,1.42,26.05-5.61-15.45-5.61-15.45l-2.77,15.47s-6.98-16.84,1.55-31.28c0,0-15.79,14.01-13.73,28.43,0,0-4.25-12.41-.94-23.46,0,0-11.14,12.94-9.22,22.6l-1.97-24.27-7.19,24.6.23-15.69-9.33,19.67-2.38-27.96-5.47,25.84-4.45-16.45-5.76,16.32s-4.46-14.26,7.5-32.6c0,0-18.18,11.98-17.24,35.43l-6.73-23.58-2.02,23.94-6.76-19.93-.78,17.83-4.64-14.27-8.79,17.52s1.96-21.75,8.04-30.73"/>
      <path class="cls-7" d="m568.5,599.73l249.21,73.08s8.69-11.46,8.4-25.95c0,0-.19,4.68-6.33,13.53,0,0,3.49-15.94,3.72-26.13,0,0-2.56,10.89-5.69,20.82l-3.36-12.82-2.72,17.35-2.75-9.49-2.56,8.72s-5.63-8.36-.27-20.6c0,0-5.72,10.75-6.99,18.47,0,0,3.43-11.03-1.32-26.43,0,0,1.14,13.95-1.59,20.05,0,0-.96-9.36-5.57-15.84,0,0,1.51,11.69.14,17.01,0,0-6.78-19.94-5.64-26.51,0,0-2.72,17.35-2.61,23.7s-3.44-21.92-3.44-21.92l-2.85,20.47-1.21-13.37-5.91,12.08s-1.04-15.3,5.15-22.95c0,0-11.84,12.11-11.99,19.37l-.06-21.32-4.88,20.66-1.42-12.65-4.5,11.31s-1.27-15.17,6.45-23.36c0,0-10.41,5.23-12.14,18.53,0,0-1.28-13.79,2.01-20.32,0,0-5.08,6.99-6.79,14.97l-1.63-13.89-5.75,19.62-1.27-14.18-3.41,11.63s-1.75-13.14,1.03-20.61c0,0-5.75,8.18-6.29,14.73l-.27-13.89-5.25,14.75-.94-9.06-5.34,10.2s-4.56-20.2-13.8-30.41c0,0,5.43,14.02.81,21.94l-2.15-11.68-3.62,12.35s-6.8-8.7-2.68-22.09c4.12-13.39-8.03,9.88-7.59,21.84,0,0,1.54-8.62-1.04-22.01,0,0-1.41,8.86-3.49,15.94l-1.93-13.59-4,15-.33-12.33-4.48,8.55s-1.48-12.39,4.42-19.35c0,0-11.42,8.11-11.79,18.01,0,0,1.56-9.43-1.32-20.17,0,0-3.2,14.62-4.18,20s-3.79-16.67-.02-24.61c0,0-7.93,11.42-6.42,22.72l-1.62-18.32s-1.38,16.12-2.42,16.42-1.53-10.34-1.53-10.34l-3.69,9.29s-2.21-11.38,4.93-19.3c0,0-11.62,6.72-12.16,15.97,0,0-1.07-8.27,2.39-14.74,0,0-8.58,6.65-8.61,12.91l1.86-15.37-7.6,14.41,2.13-9.75-8.31,11.07,2.06-17.73-6.69,15.4-.69-10.81-5.66,9.43s-.97-9.45,8.81-19.36c0,0-12.85,5.16-15.24,19.89l-1.2-15.55-4.3,14.66-1.69-13.28-2.75,11.01-1.08-9.48-7.7,9.8s3.98-13.3,8.91-18.13"/>
      <path class="cls-7" d="m920.1,790.31l406.3-41.33s5.86-21.84-3.15-42.77c0,0,2.5,6.93-1.2,23.46,0,0-4.37-25.29-10.08-40.27,0,0,2.73,17.38,4.06,33.7l-12.5-16.68,6.33,26.89-9.63-12.19,1.45,14.22s-13.16-8.83-12.6-29.84c0,0-1.95,19.05.76,31.04,0,0-1.54-18.1-17.6-37.71,0,0,9.93,19.64,9.58,30.15,0,0-6.94-13.06-17.5-19.76,0,0,9.12,16.13,10.29,24.69,0,0-21.7-25.02-23.94-35.27,0,0,6.33,26.89,10.25,36.06s-18-29.89-18-29.89l7.99,31.5-9.69-18.76-1.44,21.09s-10.58-21.66-6.11-36.48c0,0-10.06,24.66-5.98,35.32l-12.73-31.02,5.15,32.99-9.57-17.58.15,19.14s-10.85-21.34-4.45-37.85c0,0-12.06,13.79-6.7,34.19,0,0-10.05-19.33-9.12-30.79,0,0-3.26,13.2-1.02,25.84l-10.61-19.27,3.25,31.99-10.25-19.9,1.93,18.95s-10.34-18.1-10.72-30.63c0,0-3.53,15.32-.43,25.18l-8.62-20.07,1.09,24.59-6.74-12.65-1.73,18.02s-18.62-26.72-38.13-36.1c0,0,16.23,17.2,14.18,31.47l-10.06-15.73,2.05,20.14s-15.07-8.64-17-30.59c-1.93-21.95-5.83,19.15,1.9,36.31,0,0-2.87-13.47-14.57-31.43,0,0,3.19,13.74,4.37,25.29l-10.87-18.64,3.06,24.22-7.79-17.76-1.46,15.11s-9.51-17.17-5.04-30.8c0,0-11.83,18.58-6.5,33.22,0,0-3.32-14.66-13.88-28.59,0,0,4.01,23.19,5.78,31.61s-15.41-22.03-14.62-35.83c0,0-4.78,21.34,4.12,36.9l-13.23-25.73s7.54,24.29,6.21,25.34-8.36-14.15-8.36-14.15l.14,15.72s-9.97-15.27-4.25-31.03c0,0-12.94,16.68-8.24,30.47,0,0-6.47-11.42-5.25-22.88,0,0-8.56,14.77-4.88,23.91l-6.41-23.49-2.53,25.5-2.67-15.46-5.54,21.05-7.51-27.04-.61,26.4-7.41-15.34-2.65,17.1s-7.01-13.19,1.36-33.43c0,0-15.66,15.13-10.4,38.01l-10.96-21.93,2.43,23.9-10.33-18.34,2.53,17.67-7.19-13.17-5.4,18.84s-2.09-21.74,2.23-31.69"/>
      <path class="cls-7" d="m1168.14,654.24l193.62-49.95s1.23-11-4.68-20.47c0,0,1.72,3.17,1.15,11.45,0,0-3.98-11.92-7.85-18.75,0,0,2.6,8.21,4.45,16.01l-7.28-7.15,5.04,12.55-5.56-5.19,1.75,6.77s-7.02-3.31-8.3-13.51c0,0,.46,9.36,2.66,14.97,0,0-2.08-8.65-11.3-16.95,0,0,6.25,8.77,6.86,13.89,0,0-4.32-5.81-9.93-8.28,0,0,5.6,7.13,6.8,11.19,0,0-12.35-10.51-14.18-15.31,0,0,5.04,12.55,7.62,16.7s-10.92-13.14-10.92-13.14l6.19,14.66-6.07-8.37.85,10.32s-6.72-9.71-5.64-17.21c0,0-3.05,12.68-.29,17.54l-8.45-14.08,4.92,15.59-5.93-7.8,1.48,9.25s-6.82-9.53-4.94-17.99c0,0-4.82,7.57-.72,17.04,0,0-6.29-8.61-6.68-14.23,0,0-.6,6.63,1.41,12.58l-6.56-8.54,3.93,15.24-6.43-8.88,2.33,9.03s-6.34-8-7.44-14.04c0,0-.58,7.68,1.65,12.22l-5.65-9.08,2.34,11.82-4.19-5.63.49,8.85s-10.98-11.56-21.12-14.67c0,0,9.12,7.13,9.18,14.19l-6.03-6.87,2.48,9.6s-7.93-3.07-10.48-13.55-1.41,9.7,3.59,17.44c0,0-2.38-6.31-9.37-14.14,0,0,2.56,6.41,3.98,11.92l-6.64-8.22,3.27,11.5-5.08-8.02.41,7.42s-5.87-7.61-4.71-14.54c0,0-4.36,9.87-.7,16.56,0,0-2.69-6.85-8.83-12.81,0,0,3.65,10.93,5.13,14.87s-9.08-9.53-9.72-16.27c0,0-.74,10.68,4.71,17.56l-8.3-11.48s5.44,11.2,4.87,11.81-5.09-6.23-5.09-6.23l1.22,7.6s-5.95-6.65-4.35-14.71c0,0-5.03,9.03-1.74,15.36,0,0-3.97-5.05-4.23-10.69,0,0-3.05,7.78-.6,11.93l-4.84-10.9.66,12.53-2.43-7.29-1.13,10.6-5.63-12.54,1.65,12.82-4.72-6.88-.02,8.47s-4.37-5.87-1.81-16.28c0,0-6.46,8.48-2.23,19.16l-6.92-9.81,2.94,11.39-6.35-8.12,2.53,8.37-4.45-5.84-1.23,9.52s-2.62-10.37-1.26-15.5"/>
      <path class="cls-7" d="m1529.12,621.37l151.78,30.76s4.58-7.25,3.67-15.84c0,0,.13,2.79-3.08,8.36,0,0,1.26-9.65.88-15.72,0,0-.97,6.6-2.32,12.66l-2.65-7.45-.74,10.45-2.11-5.5-1.08,5.31s-3.77-4.68-1.21-12.22c0,0-2.85,6.68-3.22,11.33,0,0,1.48-6.73-2.13-15.64,0,0,1.39,8.23.08,11.99,0,0-1.04-5.51-4.11-9.13,0,0,1.49,6.87.95,10.1,0,0-5.04-11.5-4.7-15.47,0,0-.74,10.45-.35,14.21s-3.16-12.85-3.16-12.85l-.65,12.31-1.4-7.89-2.9,7.48s-1.39-9.04,1.9-13.9c0,0-6.42,7.8-6.14,12.12l-1.12-12.67-1.85,12.53-1.49-7.44-2.1,6.95s-1.53-8.95,2.65-14.21c0,0-5.92,3.64-6.27,11.63,0,0-1.46-8.13.16-12.18,0,0-2.67,4.41-3.28,9.24l-1.67-8.17-2.42,11.95-1.47-8.36-1.44,7.08s-1.71-7.72-.43-12.3c0,0-3,5.15-2.99,9.07l-.86-8.24-2.37,9.03-1.02-5.34-2.65,6.33s-3.74-11.77-9.74-17.37c0,0,3.94,8.06,1.59,12.99l-1.87-6.83-1.52,7.52s-4.49-4.83-2.72-12.99-4.27,6.28-3.4,13.36c0,0,.48-5.2-1.74-13.02,0,0-.39,5.33-1.26,9.65l-1.84-7.97-1.62,9.12-.82-7.31-2.23,5.31s-1.51-7.29,1.64-11.72c0,0-6.37,5.4-6.09,11.3,0,0,.45-5.68-1.81-11.91,0,0-1.16,8.85-1.47,12.1s-3.1-9.71-1.26-14.62c0,0-4.13,7.19-2.66,13.83l-1.89-10.81s0,9.65-.6,9.88-1.44-6.07-1.44-6.07l-1.72,5.71s-1.89-6.65,1.95-11.72c0,0-6.56,4.58-6.41,10.11,0,0-1.06-4.86.67-8.88,0,0-4.76,4.39-4.46,8.11l.32-9.23-3.79,8.95.77-5.9-4.38,7,.32-10.64-3.19,9.49-.96-6.39-2.88,5.89s-1.05-5.57,4.25-11.95c0,0-7.37,3.72-8.04,12.59l-1.5-9.18-1.81,8.93-1.68-7.8-1.07,6.68-1.12-5.58-4.08,6.22s1.69-8.11,4.37-11.22"/>
    </g>
  </g>
</svg>