<?xml version="1.0" encoding="UTF-8"?><svg id="Layer_1" xmlns="http://www.w3.org/2000/svg" width="35.31cm" height="16.9cm" viewBox="0 0 1001.01 479.1"><defs><style>.cls-1{fill:#66b25d;stroke:#428a44;}.cls-1,.cls-2,.cls-3{stroke-width:11px;}.cls-1,.cls-2,.cls-3,.cls-4,.cls-5{stroke-miterlimit:10;}.cls-2{fill:#e5cc9a;stroke:#9b8867;}.cls-3{fill:#6d5122;stroke:#4c3e19;}.cls-4{fill:#95cd84;stroke:#3b4c30;stroke-width:2px;}.cls-6{fill:#f2dcad;opacity:.43;}.cls-6,.cls-7,.cls-8,.cls-9,.cls-10{stroke-width:0px;}.cls-5{fill:#ddd64e;stroke:#68692c;stroke-width:7px;}.cls-7{fill:#71af66;}.cls-8{fill:#4f7549;}.cls-9{fill:#4e7c43;}.cls-10{fill:#2a3f25;}</style></defs><path class="cls-8" d="m152.52,477.49c-5.91,1.25-11.13-3.09-12.12-7.77-.71-3.34,1.14-8.41,5.49-15.09.58-.89,1.62-2.19,2.94-3.83,3.91-4.86,11.19-13.92,10.25-18.37-1.27-6-10.59-10.37-25.95-7.12-9.21,1.95-17.7,5.49-25.19,8.61-6.1,2.55-11.38,4.75-16.08,5.74-11.35,2.4-24.51.5-26.59-9.33-1.35-6.41,8.71-8.91,19.37-11.55,6.53-1.62,13.94-3.46,15.49-5.85,3.44-5.29,2.59-8.11-13.24-21.74-13.41-11.54-43.3-14.42-56.07-15.65-1.45-.14-2.66-.26-3.58-.36-9.13-1.04-25.1-5.26-27.06-14.49-.44-2.07-.07-3.82,1.1-5.21,3.03-3.61,10.54-3.35,15.52-3.18.81.03,1.52.05,2.09.05,1.79,0,4.95,1.14,9.95,3.01,6.19,2.3,17.71,6.6,19.42,3.97.87-1.34.52-4.89-11.65-13.52-.57-.41-.98-.7-1.17-.85-.18-.15-.41-.29-.67-.47-1.9-1.26-5.43-3.6-7.02-11.13s-5.34-9.41-5.5-9.5l-.22-.14c-12.46-9.76-12.99-15.9-13.95-27.04-.18-2.13-.39-4.56-.71-7.2-1.59-13.2-4.84-24.76-6.06-29.11-.25-.88-.41-1.46-.46-1.7-.72-3.43-1.23-13.54,5.72-15.01,7.68-1.62,16.99,15.59,17.54,17.09.11.29.24.74.42,1.34.96,3.18,3.21,10.64,8.12,15.58,5.91,5.94,9.55,11.25,11.88,22.27,2.13,10.08,7.41,15.69,9.66,18.08,2.1,2.24,7.26,8.36,9.72,16.96,2.08,7.29,8.65,11.32,11.42,10.73,2.17-.46,3.96-7.93,3.06-17.91-.77-8.6,1.07-13.34,2.05-15.88.14-.36.26-.68.36-.97.54-1.57,4.19-7.62,8.53-7.35,3.13.19,5.3,3.32,6.62,9.55,1.77,8.39-.29,14.66-2.29,20.72-2.02,6.14-3.94,11.94-2.22,20.06,3.42,16.17,16.06,18.01,17.64,17.68.17-.04.35-.07.55-.11,1.29-.24,3.05-.56,4.24-2.28,1.61-2.33,1.86-6.56.75-12.59-2.9-15.73.31-25.22,4.8-26.17,5.66-1.2,8.72,6.63,10.75,13.58,1.75,6.01,1.8,9.49,1.86,14.78.05,4.48.12,10.05,1.22,19.61.81,7.03,4.86,13.38,12.05,18.87,9.26,7.08,19.76,9.73,21.15,9.52,3.6-.76,8.14-3.49,9.24-12.18,1.23-9.68,5.73-26.5,10.65-31.59,1.39-1.44,2.77-1.22,3.47-.96,5.69,2.09,8.2,23.34,8.56,28.91.66,10.12,1.54,12.5,1.71,12.87l.06.09c12,17.44,27.41,16.49,37.96,14.26,5.08-1.07,3.95-13.09,3.04-22.75-.57-6.01-1.1-11.68-.4-15.4.5-2.64,1.58-4.02,3.22-4.09,5.2-.25,11.33,16.75,11.38,16.92.12.41.23.85.36,1.32.98,3.7,2.46,9.29,10.59,19.77,8.62,11.11,29.57,6.32,29.78,6.26l18.23-3.85-.09,1.94c-.15,3.1,1.33,9.48,1.35,9.54l.42,1.81-1.86.03c-.17,0-9.22.25-37.36,6.19-25.47,5.38-30.01,10.32-33.66,14.29-.43.47-.85.93-1.29,1.37-2.42,2.44-8.44,6.64-13.87,5.04-3.46-1.02-5.76-4.1-6.83-9.16-2.52-11.91-16.02-11.68-18.57-11.14h-.02c-9.11,1.93-17.2,7.98-23.49,17.51-9.54,14.48-20.2,22.32-26.52,23.65Zm47.6-73.55h0Z"/><path class="cls-10" d="m152.52,477.49c-5.91,1.25-11.13-3.09-12.12-7.77-.71-3.34,1.14-8.41,5.48-15.09.58-.89,1.62-2.18,2.94-3.83,3.91-4.86,11.19-13.92,10.25-18.37-1.27-6-10.59-10.37-25.95-7.12-9.21,1.95-17.7,5.49-25.19,8.61-6.1,2.55-11.38,4.75-16.08,5.74-11.35,2.4-24.51.5-26.59-9.33-1.35-6.41,8.71-8.91,19.37-11.55,6.53-1.62,13.94-3.46,15.49-5.85,3.44-5.29,2.59-8.11-13.24-21.74-13.41-11.54-43.3-14.42-56.07-15.65-1.45-.14-2.66-.26-3.58-.36-9.13-1.04-25.1-5.26-27.06-14.49-.44-2.07-.07-3.82,1.1-5.21,3.03-3.6,10.54-3.35,15.52-3.18.8.03,1.52.05,2.09.05,1.79,0,4.95,1.14,9.95,3.01,6.19,2.3,17.71,6.6,19.42,3.97.87-1.34.52-4.89-11.65-13.52-.57-.41-.98-.7-1.17-.85-.18-.15-.41-.29-.67-.47-1.9-1.26-5.43-3.6-7.02-11.13-1.53-7.26-5.34-9.41-5.5-9.5l-.22-.14c-12.46-9.76-12.99-15.9-13.95-27.04-.18-2.14-.39-4.56-.71-7.2-1.59-13.2-4.84-24.76-6.06-29.11-.25-.88-.41-1.46-.46-1.7-.72-3.43-1.23-13.54,5.72-15.01,7.68-1.62,16.99,15.59,17.54,17.09.11.29.24.75.42,1.34.96,3.18,3.21,10.64,8.12,15.58,5.91,5.94,9.55,11.25,11.88,22.27,2.13,10.09,7.41,15.69,9.66,18.08,2.1,2.24,7.26,8.36,9.72,16.96,2.08,7.29,8.65,11.32,11.42,10.73,2.17-.46,3.96-7.93,3.06-17.91-.77-8.6,1.07-13.34,2.05-15.88.14-.36.26-.68.36-.97.54-1.57,4.19-7.62,8.53-7.35,3.13.19,5.3,3.32,6.62,9.55,1.77,8.39-.29,14.66-2.29,20.72-2.02,6.14-3.94,11.94-2.22,20.06,3.42,16.17,16.06,18.01,17.64,17.68.17-.04.35-.07.55-.11,1.29-.24,3.05-.56,4.24-2.28,1.61-2.33,1.86-6.57.75-12.59-2.9-15.73.31-25.22,4.8-26.17,5.66-1.2,8.72,6.63,10.75,13.58,1.75,6.01,1.8,9.49,1.86,14.78.05,4.48.12,10.05,1.22,19.61.81,7.03,4.86,13.38,12.05,18.87,9.26,7.08,19.76,9.73,21.15,9.52,3.6-.76,8.14-3.49,9.24-12.18,1.23-9.68,5.73-26.5,10.65-31.59,1.39-1.44,2.77-1.22,3.47-.96,5.69,2.09,8.2,23.34,8.56,28.91.66,10.12,1.54,12.5,1.71,12.87l.06.09c12,17.44,27.41,16.49,37.96,14.26,5.08-1.07,3.95-13.09,3.04-22.75-.57-6.01-1.1-11.68-.4-15.4.5-2.64,1.59-4.02,3.22-4.09,5.2-.25,11.33,16.75,11.38,16.92.12.41.23.85.36,1.31.98,3.7,2.46,9.29,10.59,19.77,8.63,11.13,29.57,6.32,29.77,6.26l18.23-3.86-.09,1.94c-.15,3.1,1.33,9.48,1.34,9.54l.42,1.81-1.86.03c-.17,0-9.22.25-37.35,6.19-25.47,5.38-30.01,10.32-33.67,14.29-.43.47-.85.93-1.29,1.37-2.42,2.44-8.44,6.64-13.87,5.04-3.46-1.02-5.76-4.1-6.83-9.16-2.52-11.91-16.02-11.68-18.57-11.14h-.02c-9.11,1.93-17.2,7.98-23.48,17.51-9.54,14.48-20.2,22.32-26.52,23.65Zm-20.02-55.11c18.09-3.82,27.97,2.21,29.5,9.44,1.23,5.84-6.03,14.88-10.84,20.87-1.22,1.51-2.27,2.82-2.76,3.58-3.73,5.73-5.58,10.41-5.06,12.83.61,2.91,4.17,6.39,8.57,5.46,3.98-.84,14.25-6.6,24.64-22.37,6.72-10.21,15.47-16.7,25.29-18.78h.02c3.74-.79,19.19-.83,22.2,13.43.82,3.9,2.42,6.22,4.74,6.9,3.75,1.1,8.68-2.04,10.9-4.28.41-.41.8-.84,1.21-1.28,3.94-4.28,8.84-9.61,35.25-15.19,21.94-4.64,32.3-5.84,36.12-6.15-.35-1.73-.85-4.44-1.01-6.72l-14.53,3.07c-.9.22-23,5.3-32.8-7.35-8.5-10.96-10.07-16.9-11.12-20.84-.12-.45-.23-.86-.34-1.25-1.11-3.85-6.17-13.89-8.25-14.72-.12.18-.34.62-.52,1.61-.63,3.3-.11,8.77.44,14.55,1.13,11.96,2.29,24.34-5.4,25.97-11.36,2.4-27.96,3.42-40.97-15.37-.58-.66-1.63-3-2.38-14.59-.89-13.69-4.7-25.89-6.62-26.29,0,0-.1.06-.27.24-3.91,4.05-8.5,19.39-9.83,29.88-1.4,10.98-7.87,13.95-11.61,14.74-2.55.54-13.28-2.63-22.42-9.21-8.46-6.09-13.43-13.62-14.37-21.77-1.12-9.71-1.19-15.61-1.24-19.91-.06-5.21-.1-8.36-1.74-13.97-2.38-8.13-4.81-12-7.25-11.48-1.41.3-5.46,6.47-2.47,22.69,1.28,6.93.87,11.78-1.23,14.84-1.9,2.75-4.67,3.25-6.17,3.53-.17.03-.33.06-.47.09-3.44.73-17.49-2.42-21.2-19.99-1.88-8.91.25-15.37,2.31-21.62,1.96-5.95,3.81-11.56,2.2-19.16-.94-4.47-2.35-7.08-3.87-7.18-2.09-.13-5.05,3.99-5.51,5.33-.11.32-.25.68-.4,1.08-.96,2.48-2.57,6.62-1.86,14.52.81,9.04-.12,19.99-5.43,21.11-4.78,1.01-12.6-4.72-14.92-12.84-2.28-7.96-7.07-13.65-9.02-15.73-2.43-2.58-8.1-8.61-10.41-19.52-2.18-10.3-5.57-15.25-11.07-20.78-5.44-5.47-7.84-13.43-8.86-16.83-.16-.52-.28-.92-.37-1.17-.99-2.71-9.55-16.14-14.1-15.18s-3.76,9.76-3.41,11.45c.04.21.19.73.41,1.51,1.24,4.41,4.53,16.13,6.15,29.56.33,2.7.54,5.14.72,7.3.92,10.61,1.38,15.95,12.72,24.87.87.52,5.2,3.43,6.89,11.45,1.34,6.32,4.1,8.15,5.74,9.25.36.24.68.45.92.65.16.13.51.38,1,.72,4.89,3.47,16.35,11.59,12.43,17.6-3.02,4.64-13.16.86-22.98-2.8-3.72-1.39-7.57-2.82-8.9-2.82-.6,0-1.35-.03-2.19-.05-3.86-.13-11.03-.38-13.12,2.11-.35.42-.78,1.15-.46,2.66,1.49,7.03,15.44,11.11,24.46,12.13.91.1,2.1.22,3.53.36,13.05,1.26,43.61,4.21,57.74,16.36,14.48,12.46,19.08,17.54,13.8,25.65-2.2,3.37-9.19,5.11-17.28,7.12-7.98,1.98-17.92,4.45-17.16,8.02,1.58,7.47,12.78,9.18,23.04,7.02,4.43-.94,9.58-3.08,15.54-5.57,7.61-3.17,16.23-6.77,25.72-8.78Zm67.62-18.44h0Z"/><path class="cls-10" d="m234.6,432.4c-.15,0-3.75.04-6.66-.39,0,0-1.32-.34-1.07-1.88s1.5-1.08,1.5-1.08c2.68.39,6.16.36,6.2.36,0,0,1.38.2,1.29,1.62s-1.26,1.38-1.26,1.38Z"/><path class="cls-10" d="m189.05,427.61c-.22-.06-5.31-1.39-7.73-2.36,0,0-1.22-.92-.79-2.07s1.9-.72,1.9-.72c2.25.9,7.33,2.23,7.38,2.24,0,0,1.16.31,1.01,1.88s-1.77,1.02-1.77,1.02Z"/><path class="cls-10" d="m167.44,421.91c-.17-.05-16.8-5.15-32.38-12.92,0,0-1.59-.86-.82-2.23s2.16-.46,2.16-.46c15.36,7.66,31.75,12.68,31.92,12.73,0,0,1.37.67.98,2s-1.86.87-1.86.87Z"/><path class="cls-10" d="m122.24,402.8c-1.01-.63-24.71-15.5-28.82-18.52,0,0-1.04-.62-.41-1.95s2.19-.46,2.19-.46c4.01,2.96,28.38,18.24,28.63,18.39,0,0,1.1.63.4,1.88s-1.99.66-1.99.66Z"/><path class="cls-10" d="m81.73,376.02s-4.57-4.63-7.27-6.85c0,0-1.38-.86-.44-2.07s2.34-.25,2.34-.25c2.82,2.32,7.31,6.87,7.5,7.06,0,0,.75,1.01.08,1.92s-2.21.19-2.21.19Z"/><path class="cls-10" d="m63.73,359.89c-.2-.21-20.1-21.23-32.06-39.8,0,0-1.43-1.25.12-2.11s2.4.49,2.4.49c11.81,18.33,31.52,39.15,31.71,39.36,0,0,1.01.93.18,2.02s-2.35.05-2.35.05Z"/><path class="cls-10" d="m23.73,307.59c-.03-.12-.75-2.84-1.11-5.27,0,0,.07-1.51,1.35-1.78s1.62,1.33,1.62,1.33c.34,2.27,1.04,4.92,1.05,4.95,0,0,.24.89-.99,1.44s-1.91-.67-1.91-.67Z"/><path class="cls-8" d="m314.65,413.27l-1.55-.37c-48.6-11.57-58.31-9.15-67.7-6.8-1.21.3-2.47.62-3.79.9-12.07,2.55-16.3,1.11-19.26-12.85-2.6-12.28-13.61-15.79-22.75-13.86-4.76,1.01-11.58,5.23-18.17,9.31-6.93,4.29-13.47,8.34-18.47,9.4-10.33,2.18-17.19-3.07-18.17-7.7s3.11-13.23,17.96-18.02c12.04-3.88,11.63-11.75,11.56-12.54-3.28-15.16-27.37-14.23-46.73-13.48-2.79.11-5.43.21-7.92.26-20.65.42-26.17-12.54-27.59-18.12-.31-1.23.03-2.39.97-3.28,3.47-3.28,15.12-2.25,17.62-1.47,1.35.43,13.37,4.02,18.31-.46,2.08-1.89,2.65-5.17,1.68-9.74-3.89-18.42-34.05-37.32-40.22-39.98-3.01-1.3-10.38-5.15-17.32-9.97-8.72-6.05-13.62-11.37-14.56-15.81-.72-3.43.5-5.27,1.65-6.22,4.07-3.34,13.64-.4,16.67.9,1.59.68,4.48,2.99,9.05,6.71s13.09,10.64,15.06,10.42c.19-.04.4-.12.56-.61.74-2.27-1.23-8.21-4.79-12.16-5.38-5.98-5.4-11.48-4.47-15.03.81-3.09,1.15-6.24-2.85-13.46-4.12-7.45-4.79-10.97-4.82-11.11-.96-4.55.79-9,2.64-13.72.76-1.94,1.55-3.95,2.21-6.09,1.76-5.73,1.75-8.21,1.73-13.64,0-1.36-.01-2.89,0-4.69.11-9.44,3.79-23.26,10.42-24.66,3.3-.7,9.21-.11,11.69,11.66.55,2.61.58,5.19.61,8.17.05,4.76.11,10.68,2.14,20.3,2.11,9.99,1.89,18.05,1.72,23.93-.1,3.66-.18,6.55.28,8.74.59,2.78,1.54,4.77,2.54,6.88,1.17,2.45,2.37,4.97,3.21,8.94.94,4.46.56,9.6.26,13.73-.2,2.68-.39,5.22-.11,6.54.59,2.8,2.78,5.29,6.35,4.53,2.75-.58,4.46-5.1,6.62-10.83.52-1.39,1.08-2.86,1.69-4.38,4.29-10.76,8.35-16.01,13.16-17.03,2.47-.52,4.81.41,6.1,2.43,1.63,2.54,2.89,8.8-7,22.19-12.32,16.66-11.19,21.99-9.14,31.67,1.58,7.47,5.35,10.8,10.89,9.63,2.71-.57,3.26-1.83,5.44-7.7.94-2.52,2.1-5.66,3.87-9.7,4.27-9.77,9.68-10.36,11.81-10.17,3.11.29,5.77,2.64,6.48,5.72.51,2.21-.85,6.24-3.49,13.75-3.64,10.34-8.63,24.51-6.64,33.92,3.1,14.67,15.65,25.65,23.36,24.02,5.73-1.21,9.01-10.41,11.64-17.8.88-2.48,1.72-4.83,2.6-6.8,2.08-4.65,5.7-7.29,9.45-6.9,3.84.41,6.72,3.84,7.9,9.42s-.51,10.3-2.29,15.35c-1.88,5.32-3.82,10.83-2.37,17.67,2.59,12.25,9.23,16.43,17.63,21.71l1.73,1.09c2.29,1.45,4.54,1.95,6.74,1.43,4.24-.97,6.97-5.31,6.99-5.35,6.87-11.46,8.9-11.58,9.56-11.62,1.92-.11,4.06,1.6,14.02,24.8,3.92,9.12,29.55,14.49,39.1,15.8l1.95.27-.77,1.81c-1.59,3.71-2.43,8.52-2.44,8.57l-.27,1.57Z"/><path class="cls-10" d="m314.65,413.27l-1.55-.37c-48.6-11.57-58.31-9.15-67.7-6.8-1.21.3-2.47.62-3.79.9-12.07,2.55-16.3,1.11-19.26-12.85-2.6-12.28-13.61-15.79-22.75-13.86-4.76,1.01-11.58,5.23-18.17,9.31-6.93,4.29-13.47,8.34-18.47,9.4-10.33,2.18-17.19-3.07-18.17-7.7s3.11-13.23,17.96-18.02c12.04-3.88,11.63-11.75,11.56-12.54-3.28-15.16-27.37-14.23-46.73-13.48-2.79.11-5.43.21-7.92.26-20.65.42-26.17-12.54-27.59-18.12-.31-1.23.03-2.39.97-3.28,3.47-3.28,15.12-2.25,17.62-1.47,1.35.43,13.37,4.02,18.31-.46,2.08-1.89,2.65-5.17,1.68-9.74-3.89-18.42-34.05-37.32-40.22-39.98-3.01-1.3-10.38-5.15-17.32-9.97-8.72-6.05-13.62-11.37-14.56-15.81-.72-3.43.5-5.27,1.65-6.22,4.07-3.34,13.64-.4,16.67.9,1.59.68,4.48,2.99,9.05,6.71,4.58,3.72,13.09,10.64,15.06,10.42.19-.04.4-.12.56-.61.74-2.27-1.23-8.21-4.79-12.16-5.38-5.98-5.4-11.48-4.47-15.03.81-3.09,1.15-6.24-2.85-13.46-4.12-7.45-4.79-10.97-4.82-11.11-.96-4.55.79-9,2.64-13.72.76-1.94,1.55-3.95,2.21-6.09,1.76-5.72,1.75-8.2,1.73-13.64,0-1.36-.01-2.9,0-4.7.11-9.44,3.79-23.26,10.42-24.66,3.3-.7,9.21-.11,11.69,11.66.55,2.61.58,5.19.61,8.17.05,4.76.11,10.68,2.14,20.3s1.89,18.04,1.72,23.93c-.1,3.66-.18,6.55.28,8.74.59,2.78,1.54,4.77,2.54,6.88,1.17,2.45,2.37,4.97,3.21,8.94.94,4.46.56,9.6.26,13.73-.2,2.68-.39,5.22-.11,6.54.59,2.8,2.79,5.29,6.35,4.53,2.75-.58,4.46-5.1,6.62-10.83.52-1.39,1.08-2.86,1.69-4.38,4.29-10.76,8.35-16.01,13.16-17.03,2.47-.52,4.81.41,6.1,2.42,1.63,2.54,2.89,8.8-7,22.19-12.32,16.66-11.19,21.99-9.14,31.67,1.58,7.47,5.35,10.8,10.89,9.63,2.71-.57,3.26-1.83,5.44-7.7.94-2.52,2.1-5.66,3.87-9.7,4.27-9.77,9.68-10.36,11.81-10.17,3.11.29,5.77,2.64,6.48,5.72.51,2.21-.85,6.24-3.49,13.75-3.64,10.34-8.63,24.51-6.64,33.92,3.1,14.67,15.65,25.65,23.36,24.02,5.73-1.21,9.01-10.41,11.64-17.8.88-2.48,1.72-4.83,2.6-6.8,2.08-4.65,5.71-7.29,9.45-6.9,3.84.41,6.72,3.84,7.9,9.42s-.51,10.3-2.29,15.35c-1.88,5.32-3.82,10.83-2.37,17.67,2.59,12.25,9.23,16.43,17.63,21.71l1.73,1.09c2.29,1.45,4.57,1.95,6.74,1.43,4.24-.97,6.97-5.31,6.99-5.35,6.87-11.46,8.89-11.58,9.56-11.62,1.92-.12,4.05,1.6,14.02,24.8,3.92,9.12,29.55,14.49,39.1,15.8l1.95.27-.77,1.81c-1.59,3.71-2.43,8.52-2.44,8.57l-.27,1.57Zm-66.09-11c9.01-1.91,22-2.5,63.72,7.35.31-1.44.86-3.68,1.64-5.89-3.12-.5-9.7-1.69-16.56-3.64-12.97-3.69-20.72-8.29-23.02-13.66-7.23-16.83-10.08-21.59-11.2-22.78-1.39,1.22-4.6,5.88-7.06,9.97-.14.23-3.39,5.44-8.86,6.71-3.02.69-6.04.08-9.04-1.82l-1.72-1.09c-8.65-5.44-16.12-10.13-18.97-23.63-1.62-7.67.55-13.84,2.47-19.29,1.64-4.64,3.18-9.02,2.19-13.73-.88-4.16-2.85-6.8-5.28-7.06-2.38-.26-4.89,1.76-6.4,5.14-.83,1.87-1.65,4.16-2.51,6.58-3.03,8.52-6.47,18.17-13.85,19.73-4.67.99-10.61-1.43-15.89-6.46-5.43-5.17-9.45-12.42-11.03-19.88-2.16-10.24,2.98-24.86,6.74-35.54,1.84-5.21,3.73-10.61,3.39-12.08-.42-1.83-2-3.23-3.83-3.4-3.13-.29-6.33,2.76-8.78,8.38-1.73,3.96-2.88,7.06-3.81,9.54-2.21,5.94-3.22,8.65-7.64,9.59-10.3,2.18-13.54-7.63-14.45-11.95-2.08-9.83-3.45-16.32,9.67-34.07,7.48-10.12,8.46-16.33,6.89-18.78-.89-1.38-2.37-1.24-2.96-1.11-4.83,1.02-8.59,9.17-11,15.21-.6,1.51-1.15,2.96-1.67,4.33-2.58,6.84-4.44,11.79-8.8,12.71-5.32,1.12-9.01-2.59-9.91-6.85-.37-1.74-.17-4.35.05-7.38.29-3.94.66-8.84-.2-12.89-.76-3.61-1.89-5.98-2.98-8.27-1.03-2.17-2.1-4.41-2.77-7.55-.54-2.54-.45-5.59-.34-9.45.17-6.05.38-13.57-1.66-23.22s-2.16-16.25-2.21-20.89c-.03-2.94-.05-5.27-.54-7.58-1.02-4.83-3.26-10.38-8.14-9.35-4.33.92-7.94,12.65-8.04,21.76-.02,1.78-.01,3.3,0,4.65.02,5.57.03,8.37-1.86,14.53-.69,2.25-1.5,4.31-2.29,6.31-1.76,4.47-3.28,8.34-2.49,12.05.01.06.67,3.31,4.5,10.24,4.1,7.41,4.25,11.36,3.12,15.67-1.08,4.14.2,8.26,3.8,12.27,3.59,3.99,6.69,11.17,5.41,15.1-.46,1.4-1.45,2.33-2.8,2.62-2.95.62-8.6-3.75-17.56-11.03-3.47-2.82-7.05-5.73-8.34-6.28-3.38-1.45-11.09-3.39-13.58-1.34-.28.23-1.12.92-.62,3.28,1.72,8.12,22.52,20.36,30.13,23.64,7.41,3.19,37.84,22.59,41.97,42.11,1.2,5.69.33,9.92-2.6,12.58-6.05,5.49-18.74,1.89-21.22,1.11-2.93-.92-12.72-1.06-14.66.78-.18.17-.16.23-.13.37,1.24,4.89,6.12,16.23,24.62,15.86,2.46-.05,5.08-.15,7.86-.26,20.52-.79,46.05-1.78,49.8,15.93l.02.11c.01.11,1.28,11.03-13.61,15.83-13.32,4.29-16.53,11.79-15.94,14.54.62,2.91,6.02,7.2,14.61,5.38,4.49-.95,11.11-5.05,17.51-9.02,6.81-4.22,13.85-8.58,19.13-9.7,10.89-2.3,23.42,2.51,26.31,16.17,2.58,12.2,4.92,12.82,15.7,10.54,1.27-.27,2.44-.56,3.68-.87,1.26-.32,2.53-.63,3.89-.92Z"/><path class="cls-10" d="m264.38,394.76c-.46-.1-11.44-2.54-20.36-6.37,0,0-1.28-.69-.76-1.96s1.94-.8,1.94-.8c8.65,3.72,19.71,6.18,19.82,6.2,0,0,1.2.49.87,2.01s-1.52.92-1.52.92Z"/><path class="cls-10" d="m230.17,383.44s-4.76-2.56-8.16-3.86c0,0-2.08-1.12-1.45-2.27s2.52-.53,2.52-.53c3.58,1.36,8.31,3.91,8.51,4.02,0,0,1.27,1.15.84,2.16s-2.26.48-2.26.48Z"/><path class="cls-10" d="m198.35,366.95c-1.05-.75-25.9-18.32-31.48-24.41-5.46-5.96-9.45-10.12-9.49-10.16,0,0-1.85-1.21-.51-2.43s2.68.36,2.68.36c.04.04,4.05,4.22,9.54,10.21,5.36,5.86,30.74,23.81,30.99,23.99,0,0,1.29.83.93,1.89s-2.66.56-2.66.56Z"/><path class="cls-10" d="m146.99,320.73c-.65-1.03-2.53-3.93-3.45-4.94,0,0-1.18-.89.24-2.06s1.98.03,1.98.03c1.27,1.39,3.53,4.97,3.78,5.37,0,0,.68.82-.28,1.74s-2.26-.15-2.26-.15Z"/><path class="cls-10" d="m134.32,302.28c-.07-.14-6.92-13.65-9.76-17.81-1.73-2.53-3.74-7.94-5.69-13.16-1.49-3.98-3.02-8.1-4.26-10.44,0,0-1-2.16.1-2.75s2.55,1.35,2.55,1.35c1.33,2.51,2.83,6.53,4.42,10.79,1.89,5.06,3.84,10.29,5.36,12.52,2.95,4.32,9.67,17.58,9.96,18.14,0,0,1.41,1.4-.03,2.42s-2.64-1.07-2.64-1.07Z"/><path class="cls-10" d="m109.31,243.94c-.3-1.24-7.23-30.53-6.73-36.92,0,0-.1-2.29,1.62-2s1.37,2.24,1.37,2.24c-.38,4.92,4.68,27.65,6.66,36,0,0,.69,1.41-.68,2.2s-2.24-1.51-2.24-1.51Z"/><path class="cls-10" d="m104.25,189.38s.2,1.79-1.45,1.85-1.55-2.02-1.55-2.02c0-.05.3-5.39.32-7.29,0,0-.17-1.72,1.35-2.05s1.65,2.08,1.65,2.08c-.02,1.96-.31,7.2-.32,7.42Z"/><path class="cls-8" d="m320.18,398.87l-1.55-.91c-.55-.32-13.57-8.01-19.26-13.52-5.61-5.44-24.87-20.18-33.08-23.79-2.83-1.24-5.79-1.87-8.66-2.48-5.45-1.16-10.59-2.25-11.72-7.59-.71-3.36.6-5.65,1.88-7.86,1.68-2.92,3.59-6.23,2.03-13.6-2.69-12.7-17.1-16.96-22.53-18.56-.84-.25-2.11-.54-3.58-.89-8.6-2-24.59-5.72-26.76-15.98-.84-3.96.64-6.14,2.03-7.28,4.94-4.06,16.19-1.25,19.52.18,2.93,1.26,12.1,2.95,16.32-.52,2.23-1.83,2.89-5.01,1.95-9.45-2.56-12.12-13.51-18.18-23.17-23.53-3.4-1.88-6.62-3.66-9.15-5.57-7.42-5.58-8.9-7.02-8.95-7.95-.55-1.14-1.48-3.6-.5-5.83.72-1.64,2.24-2.72,4.52-3.2,5.4-1.14,13.69,3.59,19.69,7.76.14.1.24.17.29.2.97.59,6.64,3.17,9.75.97,2.66-1.88,3.17-7.09,1.49-15.06-5.33-25.21-29.65-26.5-37.65-26.92-7.73-.41-12.05-2.49-12.83-6.18-.48-2.25.44-6.44,6.91-7.8,4.41-.93,12.28.41,19.23,1.59,2.55.43,4.97.84,6.94,1.09,1.71.22,2.14-.1,2.15-.11.16-.51-.98-3.1-4.54-6.8-1.25-1.3-2.52-2.45-3.65-3.46-2.35-2.12-4.2-3.8-4.73-5.73l-.06-.23c-.59-2.18-1.39-5.16-7.6-6.67-8.41-2.05-12.96-9.69-14.92-14.06-1.48-3.31-3.87-4.43-6.9-5.84-.9-.42-1.82-.85-2.78-1.37-.97-.52-2.93-1.08-5.21-1.73-6.86-1.95-17.23-4.9-18.81-12.4-.54-2.54-.08-4.58,1.35-6.09,3.87-4.07,13.83-2.87,25.49-1.02,14.81,2.35,31.4,12.37,38.27,20.3,7.63,8.81,15.81,16.05,18.13,18.06,1.77,1.53,2.57,5.21,3.59,9.87,1.85,8.45,3.61,14.84,8.01,13.91,6.1-1.29,5.87-12.54,4.6-21.75-.08-.55-.13-.97-.15-1.21l-.02-.18c-1.22-13.12,2.68-16.75,6.17-17.49,2.41-.51,4.87.49,6.76,2.75,6.45,7.74,3.43,23.36-1.1,34.38-8.36,20.31-7.49,27.13-6.65,33.72.11.9.23,1.79.32,2.7.37,3.67,2.48,6.78,5.03,7.4,2.83.69,6.09-1.56,9.18-6.31,5.77-8.86,10.53-14.08,13.42-14.69l.1-.03c.82-.22,3.32-.88,5.76.62,1.97,1.21,3.31,3.49,4.01,6.78,1.55,7.32-10.6,22.93-21.07,34.74l-.34.38c-2.46,2.79-14.39,19.77-11.6,32.97,2.65,12.55,8.57,11.3,11.75,10.63,2.77-.59,3.45-.96,6.69-2.74l1.43-.79c3.92-2.14,12.58-5.61,17.32-3.43,1.69.78,2.79,2.19,3.19,4.09,1.39,6.6-9.94,13.88-19.95,20.3-2.24,1.44-4.36,2.8-6.08,4-1.95,1.37-3.09,3.58-3.36,6.59-.68,7.34,3.81,16.81,6.47,19.52,3.01,3.06,5.8,2.83,10.31-.84,4.28-3.49,7.73-4.82,10.26-3.94,1.74.6,2.9,2.14,3.44,4.56.65,2.93-.22,4.95-1.15,7.09-1.39,3.21-3.12,7.2-1.02,17.13,3.37,15.93,29.02,28.55,29.28,28.67l1.66.81-1.13,1.46c-2.85,3.7-3.88,6.43-3.89,6.45l-.62,1.69Z"/><path class="cls-10" d="m320.18,398.87l-1.55-.91c-.55-.32-13.57-8.01-19.26-13.52-5.61-5.44-24.87-20.18-33.08-23.79-2.83-1.24-5.79-1.87-8.66-2.48-5.45-1.16-10.59-2.25-11.72-7.59-.71-3.36.6-5.65,1.88-7.86,1.68-2.92,3.59-6.23,2.03-13.6-2.69-12.7-17.1-16.96-22.53-18.56-.84-.25-2.11-.54-3.58-.89-8.6-2-24.59-5.72-26.76-15.98-.84-3.96.64-6.14,2.03-7.28,4.94-4.06,16.19-1.25,19.52.18,2.93,1.26,12.1,2.95,16.32-.52,2.23-1.83,2.89-5.01,1.95-9.45-2.56-12.12-13.51-18.18-23.17-23.53-3.4-1.88-6.62-3.66-9.15-5.57-7.42-5.58-8.9-7.02-8.95-7.95-.55-1.14-1.48-3.6-.5-5.83.72-1.64,2.24-2.72,4.52-3.2,5.4-1.14,13.69,3.59,19.69,7.76.14.1.24.17.29.2.97.59,6.64,3.17,9.75.97,2.66-1.88,3.17-7.09,1.49-15.06-5.33-25.21-29.65-26.5-37.65-26.92-7.73-.41-12.05-2.49-12.83-6.18-.48-2.25.44-6.44,6.91-7.8,4.41-.93,12.28.41,19.23,1.59,2.55.43,4.97.84,6.94,1.09,1.71.22,2.14-.1,2.15-.11.16-.51-.98-3.1-4.54-6.8-1.25-1.3-2.52-2.45-3.65-3.46-2.35-2.12-4.2-3.8-4.73-5.73l-.06-.23c-.59-2.18-1.39-5.16-7.6-6.67-8.41-2.05-12.96-9.69-14.92-14.06-1.48-3.31-3.87-4.43-6.9-5.84-.9-.42-1.82-.85-2.78-1.37-.97-.52-2.93-1.08-5.21-1.73-6.86-1.95-17.23-4.9-18.81-12.4-.54-2.54-.08-4.58,1.35-6.09,3.87-4.07,13.83-2.87,25.49-1.02,14.81,2.35,31.4,12.37,38.27,20.3,7.63,8.81,15.81,16.05,18.13,18.06,1.77,1.53,2.57,5.21,3.59,9.87,1.85,8.45,3.61,14.84,8.01,13.91,6.1-1.29,5.87-12.54,4.6-21.75-.08-.55-.13-.97-.15-1.21l-.02-.18c-1.22-13.12,2.68-16.75,6.17-17.49,2.41-.51,4.87.49,6.76,2.75,6.45,7.74,3.43,23.36-1.1,34.38-8.36,20.31-7.49,27.13-6.65,33.72.11.9.23,1.79.32,2.7.37,3.67,2.48,6.78,5.03,7.4,2.83.69,6.09-1.56,9.18-6.31,5.77-8.86,10.53-14.08,13.42-14.69l.1-.03c.82-.22,3.32-.88,5.76.62,1.97,1.21,3.31,3.49,4.01,6.78,1.55,7.32-10.6,22.93-21.07,34.74l-.34.38c-2.46,2.79-14.39,19.77-11.6,32.97,2.65,12.55,8.57,11.3,11.75,10.63,2.77-.59,3.45-.96,6.69-2.74l1.43-.79c3.92-2.14,12.58-5.61,17.32-3.43,1.69.78,2.79,2.19,3.19,4.09,1.39,6.6-9.94,13.88-19.95,20.3-2.24,1.44-4.36,2.8-6.08,4-1.95,1.37-3.09,3.58-3.36,6.59-.68,7.34,3.81,16.81,6.47,19.52,3.01,3.06,5.8,2.83,10.31-.84,4.28-3.49,7.73-4.82,10.26-3.94,1.74.6,2.9,2.14,3.44,4.56.65,2.93-.22,4.95-1.15,7.09-1.39,3.21-3.12,7.2-1.02,17.13,3.37,15.93,29.02,28.55,29.28,28.67l1.66.81-1.13,1.46c-2.85,3.7-3.88,6.43-3.89,6.45l-.62,1.69Zm-116.68-111.27c-1.05.22-1.95.58-2.61,1.13-.4.33-1.63,1.34-1,4.34,1.77,8.39,16.56,11.83,24.51,13.68,1.51.35,2.82.66,3.75.93,5.9,1.74,21.56,6.37,24.61,20.82,1.79,8.49-.51,12.5-2.36,15.72-1.17,2.03-2.01,3.5-1.54,5.74.69,3.27,3.86,4.1,9.41,5.28,2.87.61,6.13,1.3,9.24,2.67,8.63,3.79,28.07,18.67,33.96,24.38,4.36,4.22,13.69,10.05,17.26,12.23.52-1.02,1.33-2.47,2.52-4.17-5.93-3.14-26.11-14.82-29.3-29.93-2.3-10.86-.27-15.53,1.2-18.94.85-1.96,1.41-3.26.97-5.24-.3-1.34-.8-2.14-1.49-2.37-1.39-.48-4.15.8-7.38,3.43-3.56,2.91-8.93,6.13-14.35.62-3.4-3.46-8.06-13.96-7.32-21.9.36-3.93,1.92-6.88,4.63-8.77,1.77-1.24,3.91-2.61,6.18-4.07,7.8-5.01,19.6-12.59,18.63-17.15-.21-.98-.69-1.61-1.51-1.99-3.19-1.47-10.48,1.06-14.63,3.33l-1.43.78c-3.31,1.82-4.3,2.37-7.51,3.05s-12.03,2.54-15.31-12.94c-3.03-14.35,9.12-31.98,12.29-35.57l.34-.39c13.74-15.5,21.35-27.51,20.38-32.13-.52-2.46-1.41-4.09-2.65-4.85-1.34-.83-2.85-.43-3.42-.28-.11.03-.19.05-.25.06-.13.03-3.35.83-11.53,13.39-5.19,7.97-10,8.18-12.41,7.59-3.81-.93-6.81-5.04-7.31-10.01-.09-.89-.2-1.75-.31-2.62-.89-6.98-1.82-14.2,6.85-35.25,4.55-11.06,6.8-25.03,1.57-31.32-1.16-1.4-2.52-2.01-3.83-1.74-3.25.69-4.6,5.76-3.81,14.27l.02.18c.02.22.07.59.14,1.08.78,5.68,3.16,22.96-6.95,25.09-7.66,1.62-9.82-8.26-11.56-16.2-.75-3.45-1.61-7.37-2.62-8.25-2.36-2.04-10.67-9.41-18.43-18.36-6.56-7.57-22.78-17.13-36.48-19.3-7.39-1.17-19.75-3.13-22.85.12-.26.28-1.07,1.12-.59,3.4,1.21,5.73,10.53,8.38,16.7,10.14,2.54.72,4.55,1.29,5.81,1.97.88.48,1.77.89,2.63,1.29,3.3,1.55,6.42,3.01,8.36,7.33,1.74,3.87,5.72,10.63,12.89,12.38,7.93,1.93,9.14,6.4,9.78,8.8l.06.23c.3,1.09,1.94,2.58,3.85,4.3,1.16,1.05,2.48,2.24,3.8,3.61,3.05,3.17,6.41,7.52,5.04,10.26-.74,1.47-2.48,2.04-5.18,1.7-2.04-.26-4.48-.67-7.07-1.11-6.35-1.08-14.26-2.42-18.11-1.61-5.11,1.08-4.66,3.93-4.59,4.25.44,2.1,4.11,3.49,10.06,3.8,6.12.32,14.12,1.17,21.75,4.83,9.97,4.79,16.25,13.02,18.67,24.47,2,9.44,1.06,15.56-2.78,18.19-5.12,3.5-12.96-.92-13.03-.97-.06-.04-.19-.13-.37-.25-7.69-5.34-14.02-7.99-17.36-7.29-1.28.27-2.08.76-2.39,1.46-.54,1.22.31,3.13.65,3.71l.23.38c.58.58,2.35,2.13,7.63,6.1,2.36,1.78,5.49,3.51,8.8,5.34,9.72,5.38,21.81,12.08,24.66,25.53,1.19,5.62.18,9.79-2.99,12.39-5.66,4.65-16.21,2.33-19.41.95-2.72-1.16-9.5-2.66-13.82-1.74Z"/><path class="cls-10" d="m285.49,362.65c-.8-.58-3.18-2.22-4.54-2.75,0,0-1.64-.65-1.19-1.97s2.29-.83,2.29-.83c2.01.79,5.08,3.03,5.21,3.12,0,0,1.64,1.14.89,2.28s-2.66.14-2.66.14Z"/><path class="cls-10" d="m268.9,349.69c-.52-.69-12.77-17.05-14.67-26.04,0,0-.58-2.74,1.22-2.85s1.72,2.23,1.72,2.23c1.76,8.34,14.01,24.7,14.13,24.86,0,0,1.36,1.13.53,2.49s-2.92-.68-2.92-.68Z"/><path class="cls-10" d="m251.87,307.21s.52,1.56-.62,2.35-2.32-1.76-2.32-1.76c-.27-1.37-6.73-33.62-6.37-39.59,0,0,.49-2.39,1.99-2.03s1.01,2.21,1.01,2.21c-.28,4.64,4.46,29.6,6.31,38.82Z"/><path class="cls-10" d="m243.58,251.27s.8,1.73-.88,2.09-2.08-1.56-2.08-1.56c-.17-.95-1.65-9.36-1.27-11.91,0,0,.5-1.92,1.89-1.59s1.07,2.04,1.07,2.04c-.24,1.56.64,7.53,1.25,10.93Z"/><path class="cls-10" d="m228.5,198.54c-.06-.21-6.31-21.09-21.43-38.12,0,0-1.42-.89-.45-2.11s2.69.12,2.69.12c15.57,17.54,21.8,38.39,22.06,39.27,0,0,.88,2.05-.65,2.78s-2.23-1.94-2.23-1.94Z"/><path class="cls-10" d="m194.6,146.96s-1.63-2.56-4.31-4.3c0,0-1.46-1.31-.51-2.42s2.15-.09,2.15-.09c3.25,2.12,5.14,5.1,5.21,5.23,0,0,1.03,1.46-.11,2.21s-2.44-.62-2.44-.62Z"/><path class="cls-4" d="m505.57,48.31c-.17.37-15.87,33.69-39.08,32.47,9.46-7.25,26.66-21.93,30.55-35.5,0,0,2-4.94-1.79-6.35s-4.7,4.49-4.7,4.49c-2.91,10.11-15.36,21.68-24.38,29,4.91-12.18,9.04-24.08,12.46-35.09,0,0,3.3-6.37-.95-7.38s-5.5,5.38-5.5,5.38c-3.93,12.64-8.79,26.49-14.73,40.57-10.58-17.22-3.86-48.49-3.78-48.84,0,0,1.95-5.98-1.85-7.18-3.8-1.2-4.73,5.72-4.73,5.72-.29,1.33-5.73,26.59,1.01,46.03-14.61-16.47-11.62-48.74-11.58-49.13,0,0,1.19-6.02-2.59-6.92-3.78-.9-4.12,6.24-4.12,6.24-.05.53-1.28,13.08,1.29,27.16,3.22,17.6,11.04,29.71,22.7,35.31-15.25,33.86-36.81,68.03-66.6,89.4-16.55,11.88-30.87,16.26-39.35,17.88,8.8-12.53,23.43-44.53,21.49-117.31.74-.23,1.57-.52,2.51-.91,9.17-3.82,26.68-16.31,29.09-56.17,0,0,1.56-6.46-2.7-6.54s-4.03,6.13-4.03,6.13c-1.91,31.55-13.6,43.86-21.47,48.6,5.59-12.15,14.79-35.72,10.85-51.99,0,0-1.78-7.24-5.25-6.41-3.47.83-1.31,8-1.31,8,3.01,12.42-3.25,30.83-8.37,42.88-.75-13.34-2.02-27.87-3.92-43.74,0,0,.08-7.39-3.95-6.64-4.02.75-2.75,7.45-2.75,7.45,1.92,16.02,3.18,30.64,3.91,44.01-9.03-17.3-16.6-42.17-16.69-42.48,0,0-.86-7.2-5.34-6.06s-1.12,8.01-1.12,8.01c.43,1.44,9.73,32.02,20.58,49.69-23.58-4.12-31.78-48.5-31.87-48.98,0,0-1.15-6.58-4.89-5.64-3.74.94-1.76,6.82-1.76,6.82.1.59,2.62,14.53,9.19,28.24,8.33,17.38,19.51,26.49,32.53,26.62,1.99,82.08-17.58,109.99-23.4,116.43-7.83-5.65-36.9-30.34-62.37-99.99,23.25-12,18.83-59.35,18.62-61.45,0,0-.05-6.75-3.91-6.59s-2.81,7.26-2.81,7.26c1.18,11.78.94,41.13-11.39,52.27,2.41-13.12,6.27-40.25.31-55.07,0,0-1.39-6.45-5.3-4.92s-.96,7.44-.96,7.44c4.61,11.45,2.38,32.49.22,45.97-4.16-12.7-8.16-26.7-11.91-42.13,0,0-1.71-7.36-5.28-6.28s-1.27,7.87-1.27,7.87c3.87,15.97,8.01,30.42,12.3,43.52-16.89-16.54-22.89-37.79-22.96-38.04,0,0-1.57-7.11-5.4-5.92s-1.1,7.7-1.1,7.7c.31,1.16,7.35,26.23,28.28,44.36-4.15.06-9.68-.65-15.47-3.7-11.26-5.93-19.71-18.51-25.1-37.38,0,0-.94-7.26-5.08-6.77s-1.41,8.63-1.41,8.63c5.92,20.72,15.49,34.68,28.45,41.5,10.27,5.41,19.88,4.77,24.73,3.91,22.78,62.73,48.44,89.95,60.57,100.03-18.15,1.24-67.42-3.19-135.47-70.15,5.81-7.46,19.26-30.14-2.52-59.57,0,0-4.27-7.01-7.41-4.15s1.99,8.17,1.99,8.17c15.7,21.21,10.91,37.84,5.96,46.58-3.82-32.35-18.89-48.42-19.59-49.15,0,0-4.24-5.06-7.53-2.56s2.65,7.23,2.65,7.23c.04.04,4.26,4.53,8.62,13.37,3.33,6.74,7.29,17.24,9.05,31.21-9.99-10.38-20.34-22.08-31.04-35.3,0,0-4.2-5.51-7.48-3.23s2.24,7.47,2.24,7.47c8.25,10.19,17.68,21.16,28.07,32.15-13.19-7.1-29.54-20.41-36.29-26.39,0,0-4.5-4.23-7.41-1.79s2.93,6.84,2.93,6.84c1.22,1.08,26.64,23.48,44.64,30.58-6.36,3.14-12.86,4.18-19.4,3.09-18.04-3-30.95-21.13-31.17-21.45,0,0,0,0,0,0,0,0-4.26-5.29-7.17-2.84s1.63,6.7,1.63,6.7c.59.85,14.63,20.75,35.57,24.25,7.1,1.19,14.11.35,20.94-2.5,2.62-1.09,5.22-2.49,7.79-4.18,27.73,27.29,60.97,52.98,96.38,65.31,25.33,8.82,42.63,7.65,49.87,6.47,8.98,60.2.98,112.05-9.02,148.38-6.63-4.72-20.87-15.02-37.2-27.88,2.35-16.08,4.97-32.9,7.33-46.78,2.39-.15,5.89-.68,9.77-2.3,5.93-2.47,12.72-7.48,17.75-17.52,0,0,2.94-5.37-.27-7.13s-5.77,4.11-5.77,4.11c-6.12,12.25-15.24,15.26-20.29,15.95,2.27-12.87,4.17-22.11,5.14-23.92-.04.07,3.78-6.06-.01-7.23s-5.47,3.31-5.47,3.31c-1.49,1.96-3.83,12.9-6.29,26.62-1.55-.92-3.38-2.39-4.88-4.67-3.24-4.92-3.95-11.93-2.1-20.82,0,0,1.95-5.77-1.78-6.62-3.73-.85-4.83,5.25-4.83,5.25-2.22,10.71-1.19,19.43,3.07,25.9,2.9,4.41,6.67,6.73,9.3,7.91-2.52,14.7-5.03,31.22-6.78,43.08-10.51-8.43-21.58-17.71-31.85-27.1,2.34-8.57,10.49-41.63,3.35-62.96,0,0-1.44-6.27-5.04-4.84s-1.36,6.98-1.36,6.98c5.75,17.19.23,44.19-2.58,55.59-15.27-14.47-28.04-28.87-33.36-40.47,0,0-2.11-4.71-5.35-3.08s-.78,5.89-.78,5.89c4.93,10.76,15.9,24.33,32.69,40.5-5.56,1.68-15.21,4.05-26.66,4.56-1.08-5.93-4.84-18.67-17.87-30.04,0,0-4.34-3.04-6.71-.47-2.37,2.57,2.27,5.56,2.27,5.56,10.65,9.29,14.23,19.69,15.42,25.02-8.77-.22-18.24-1.68-27.54-5.37,0,0-4.86-1.25-5.82,1.56s3.33,4.71,3.33,4.71c30.21,11.98,61.01,2.67,69.19-.24,8.44,7.83,18.13,16.22,29.1,25.17,8.29,6.76,16.39,13.09,23.68,18.63-13.13,5.61-49.08,18.95-74.8,9.26,0,0-6.64-1.66-7.29,2.05-.65,3.71,4.91,4.26,4.91,4.26,9.11,3.43,19.86,4.6,32.11,3.5-3.98,4.66-11.92,12.03-27.31,20.97,0,0-4.56,2.77-3.02,5.64s6.41.2,6.41.2c23.16-13.45,30.77-23.79,33.09-28.02,4.71-.8,9.6-1.88,14.69-3.27,9.1-2.49,16.88-5.44,22.14-7.63,2.25-.94,4.02-1.73,5.25-2.3,9.85,7.38,17.54,12.87,21.06,15.35-9.01,30.33-18.82,48.17-19.04,48.56l5.88,3.3c.51-.91,12.65-22.73,22.54-59.86,8.94-33.55,17.52-86.23,8.31-148.13,7.67-.75,25.54-4.18,47.12-19.5,31.3-22.23,53.77-57.83,69.54-92.95,6.73,1.71,13.46,1.17,20.02-1.57,5.89-2.46,11.65-6.69,17.15-12.64,9.05-9.81,14.18-20.81,14.4-21.27,0,0,1.97-4.2-1.24-5.96s-4.88,3.13-4.88,3.13Z"/><path class="cls-7" d="m794.38,49c-.59-.21-14.72-5-42.18,8.44-26.75,13.09-72,40.15-92.52,56.77-3.99,3.23-8.18,6.55-12.62,10.06-17.28,13.68-36.86,29.18-46.65,41.73-1.98,2.54-3.84,4.87-5.55,7.02-8.38,10.51-13.65,17.15-13.43,23.51-14.66,15.46-35.55,38.6-51.46,56.86.08-3.3.52-6.71,1.19-10.1,4.18-1.14,12.88-6.69,24.9-30.88,13.55-27.26,23.08-42.62,30.73-54.97,1.08-1.75,2.13-3.43,3.14-5.07,7.92-12.89,24.23-45.37,28.54-64.19.71-3.12,1.75-6.77,2.84-10.63,5.18-18.27,13-45.87,3.31-75.59l-.64-1.97-2.05.26c-2.25.29-8.21,3.62-14.89,28.18-5.58,20.53-14.78,51.19-30.07,80.37-1.56,2.61-27.65,46.29-32.7,58.63-.77,1.87-1.9,4.34-3.21,7.2-7.21,15.7-20.55,44.77-14.55,66.45-1.26,5.99-1.89,12.13-1.32,17.83-3.18,3.69-6.07,7.09-8.57,10.07-10.47,12.52-21.16,23-30.76,31.41,0-8.41.6-17.7,1.46-26.65,1.83-5.05,20.24-55.91,24.87-72.8,3.35-12.21,25.05-100.59,22.95-133.25-1.97-30.61-4.46-42.51-4.57-43l-1.88-8.79-2.93,8.49c-.18.51-17.63,51.31-24.36,81.88-1.3,5.91-2.99,13.05-4.95,21.32-7.95,33.54-19.95,84.24-19.95,115.29-.06,10.24.66,26.89,5.73,31.59-.95,10.25-1.55,20.88-1.32,30.14-16.31,13.66-28.37,20.71-28.57,20.82l2.5,4.33c.28-.16,23.3-13.59,49.06-39.48,8.19-.38,20.1-4.05,31.78-8.47,1.98.97,6.36,2.63,13.24,2.63s15.7-1.57,27.13-6.84c26.76-12.35,74.86-40.2,96.79-57.6,3.42-2.72,7.39-5.72,11.58-8.91,23.21-17.61,55-41.74,69.3-71.3l1.61-3.33-3.68-.26c-.53-.04-13.26-.69-43.78,16.99-31.35,18.17-71.58,44.11-95.66,61.7-25.01,18.27-48.59,35.88-55.66,41.25-9.72,7.39-19.1,15-22.46,20.91-8.76,3.34-17.6,6.23-24.68,7.53,3.67-3.9,7.37-8.03,11.03-12.42,20.89-24.99,47.9-54.54,64.8-72.3,3.34-.5,14.32-2.91,29.89-14.1,8.51-6.12,26.91-18.16,44.71-29.8,20.8-13.61,38.76-25.36,42.17-28.38,2.92-2.59,15.59-11.87,27.85-20.85,14.06-10.29,27.33-20.02,30.35-22.81,1.7-1.58,5.51-4.67,9.92-8.25,13.27-10.79,23.59-19.35,25.61-23.19l1.34-2.55-2.71-.97Z"/><path class="cls-9" d="m501.17,191.9c.4-1.53,9.89-37.61,10.52-43.58,0,0,.7-2.61-1.99-3s-2.99,2.48-2.99,2.48c-.49,4.64-7.66,32.49-10.38,42.83-1.42,5.39-4.7,23.15-4.84,23.9,0,0-.96,2.27,1.65,2.9s3.26-1.99,3.26-1.99c.03-.18,3.39-18.32,4.76-23.53Z"/><path class="cls-9" d="m517.57,121.24s1.04-3.89-1.64-4.41-3.23,3.28-3.23,3.28c-.83,3.61-2.51,10.34-2.53,10.4,0,0-.9,2.83,1.6,3.25s3.25-2.04,3.25-2.04c.02-.07,1.71-6.84,2.55-10.49Z"/><path class="cls-9" d="m564.2,172.13s2.67-2.93,0-4.53-4.39,2.13-4.39,2.13c-1.66,3.04-16.19,27.92-16.34,28.17,0,0-1.89,3.11.55,4.33s3.76-1.81,3.76-1.81c.6-1.03,14.72-25.2,16.41-28.3Z"/><path class="cls-9" d="m602.26,96.73s1.24-3.95-1.3-4.7-3.54,3.46-3.54,3.46c-1.95,7.57-21.38,43.55-31.39,61.53,0,0-2.37,3.53,0,4.76s4.37-2.33,4.37-2.33c1.19-2.14,29.27-52.63,31.86-62.71Z"/><path class="cls-9" d="m614.17,66.85s1.29-4.09-1.44-4.57-3.5,3.79-3.5,3.79c-.63,4.01-4.52,11.33-5.97,13.81,0,0-1.83,2.92.43,4.14s3.89-1.62,3.89-1.62c.23-.4,5.68-9.79,6.59-15.55Z"/><path class="cls-9" d="m794.38,49c-.59-.21-14.72-5-42.18,8.44-26.75,13.09-72,40.15-92.52,56.77-3.99,3.23-8.18,6.55-12.62,10.06-17.28,13.68-36.86,29.18-46.65,41.73-1.98,2.54-3.84,4.87-5.55,7.02-8.38,10.51-13.65,17.15-13.43,23.51-14.66,15.46-35.55,38.6-51.46,56.86.08-3.3.52-6.71,1.19-10.1,4.18-1.14,12.88-6.69,24.9-30.88,13.55-27.26,23.08-42.62,30.73-54.97,1.08-1.75,2.13-3.43,3.14-5.07,7.92-12.89,24.23-45.37,28.54-64.19.71-3.12,1.75-6.77,2.84-10.63,5.18-18.27,13-45.87,3.31-75.59l-.64-1.97-2.05.26c-2.25.29-8.21,3.62-14.89,28.18-5.58,20.53-14.78,51.19-30.07,80.37-1.56,2.61-27.65,46.29-32.7,58.63-.77,1.87-1.9,4.34-3.21,7.2-7.21,15.7-20.55,44.77-14.55,66.45-1.26,5.99-1.89,12.13-1.32,17.83-3.18,3.69-6.07,7.09-8.57,10.07-10.47,12.52-21.16,23-30.76,31.41,0-8.41.6-17.7,1.46-26.65,1.83-5.05,20.24-55.91,24.87-72.8,3.35-12.21,25.05-100.59,22.95-133.25-1.97-30.61-4.46-42.51-4.57-43l-1.88-8.79-2.93,8.49c-.18.51-17.63,51.31-24.36,81.88-1.3,5.91-2.99,13.05-4.95,21.32-7.95,33.54-19.95,84.24-19.95,115.29-.06,10.24.66,26.89,5.73,31.59-.95,10.25-1.55,20.88-1.32,30.14-16.31,13.66-28.37,20.71-28.57,20.82l2.5,4.33c.28-.16,23.3-13.59,49.06-39.48,8.19-.38,20.1-4.05,31.78-8.47,1.98.97,6.36,2.63,13.24,2.63s15.7-1.57,27.13-6.84c26.76-12.35,74.86-40.2,96.79-57.6,3.42-2.72,7.39-5.72,11.58-8.91,23.21-17.61,55-41.74,69.3-71.3l1.61-3.33-3.68-.26c-.53-.04-13.26-.69-43.78,16.99-31.35,18.17-71.58,44.11-95.66,61.7-25.01,18.27-48.59,35.88-55.66,41.25-9.72,7.39-19.1,15-22.46,20.91-8.76,3.34-17.6,6.23-24.68,7.53,3.67-3.9,7.37-8.03,11.03-12.42,20.89-24.99,47.9-54.54,64.8-72.3,3.34-.5,14.32-2.91,29.89-14.1,8.51-6.12,26.91-18.16,44.71-29.8,20.8-13.61,38.76-25.36,42.17-28.38,2.92-2.59,15.59-11.87,27.85-20.85,14.06-10.29,27.33-20.02,30.35-22.81,1.7-1.58,5.51-4.67,9.92-8.25,13.27-10.79,23.59-19.35,25.61-23.19l1.34-2.55-2.71-.97Zm-248.79,127.73c1.34-2.91,2.49-5.42,3.3-7.39,4.95-12.11,32.12-57.56,32.4-58.02l.07-.12c15.55-29.64,24.85-60.68,30.5-81.45,3.75-13.79,7.1-19.94,9.11-22.62,7.51,26.85.63,51.13-4.46,69.07-1.11,3.93-2.16,7.63-2.91,10.88-4.13,18.03-20.38,50.39-27.93,62.69-1,1.64-2.04,3.31-3.12,5.05-7.71,12.44-17.31,27.91-30.96,55.38-8.76,17.62-15.28,24.3-18.93,26.82,3.92-14.29,10.74-26.76,10.84-26.95,0,0,1.01-2.19-1.16-3.41s-3.22.99-3.22.99c-.37.67-5.22,9.54-9.15,21.02.14-18.23,9.89-39.47,15.62-51.94Zm-64.09,66.2c0-30.49,11.93-80.84,19.82-114.15,1.96-8.29,3.66-15.46,4.97-21.4,4.89-22.21,15.54-55.33,20.93-71.59.87,6.79,1.97,17.29,2.93,32.25.82,12.79-2.24,37.18-8.85,70.54-5.53,27.9-11.78,53.19-13.94,61.06-2.84,10.35-11.19,34.38-17.44,52,1.56-11.26,2.98-19.17,3.02-19.36,0,0,.75-3.06-1.9-3.52-2.65-.46-3.02,2.62-3.02,2.62-.05.26-2.73,15.21-4.8,33.48-1.07-5.33-1.77-13.51-1.72-21.93Zm78.07,17.24c7.06-5.36,30.6-22.95,55.59-41.2,23.95-17.49,64-43.32,95.21-61.41,19.28-11.17,31.03-14.7,36.73-15.82-14.66,26.67-44,48.93-65.71,65.4-4.22,3.2-8.2,6.23-11.67,8.98-21.66,17.19-69.27,44.74-95.78,56.97-12.96,5.98-22.29,6.72-27.82,6.27-1.15-.09-2.19-.24-3.11-.41,15.83-6.44,29.59-13.31,30.66-13.85,0,0,3.11-1.99,2.17-4.06s-4.41-.41-4.41-.41c-.25.12-12.79,6.39-27.67,12.58,4.99-4.83,11.81-10.02,15.81-13.06Zm207.42-188.34c-4.47,3.64-8.34,6.78-10.16,8.46-2.81,2.6-16.59,12.69-29.91,22.45-12.92,9.46-25.12,18.4-28.21,21.14-3.13,2.78-22.68,15.57-41.59,27.94-17.84,11.67-36.29,23.75-44.89,29.93-8.36,6.01-15.29,9.32-20.21,11.13,4.88-5,8.14-8.18,9.04-8.75-.03.02-.06.04-.09.05,0,0,2.83-1.28,1.61-3.49s-3.84-.98-3.84-.98c-1.15.57-4.28,3.49-8.75,7.99,2.13-3.18,5.13-6.96,8.79-11.55,1.73-2.17,3.59-4.51,5.58-7.06,9.42-12.08,28.75-27.38,45.81-40.89,4.45-3.52,8.65-6.85,12.66-10.1,20.27-16.41,65.06-43.19,91.57-56.17,15.14-7.41,25.84-8.91,32.01-8.91.92,0,1.74.03,2.46.08-4.81,4.84-15.15,13.25-21.88,18.73Z"/><path class="cls-9" d="m608.21,170.96s-1.98,2.81,0,4.08,3.96-1.04,3.96-1.04c1.2-1.28,23.86-22.78,32.16-28.54,0,0,3.42-1.75,1.82-4.11-1.6-2.36-4.67,0-4.67,0-8.61,5.97-32.5,28.46-33.27,29.61Z"/><path class="cls-9" d="m652.78,132.55s-3.63,2.96-1.23,4.65,4.34-.74,4.34-.74c.2-.16,20.07-15.91,40.21-29.39,0,0,3.5-1.87,2.23-4.16s-5.01,0-5.01,0c-20.32,13.59-40.34,29.47-40.54,29.63Z"/><path class="cls-9" d="m706.06,94.93s-2.41,2.13-.77,4.11,4.05-.34,4.05-.34c.06-.05,6.3-5.44,12.22-8.07,0,0,2.98-1.8,2.13-3.92s-4.16-.65-4.16-.65c-6.62,2.94-13.2,8.63-13.47,8.87Z"/><path class="cls-9" d="m731.49,80.13s-1.28,1.74,0,3.43,4.02-.46,4.02-.46c.02-.02,1.77-2.06,8.7-4.85,0,0,3.62-1.55,2.49-3.58s-4.37-1.06-4.37-1.06c-8.31,3.35-10.49,6.02-10.85,6.52Z"/><path class="cls-9" d="m597.72,252.43s2.78-1.25,1.46-3.79c-1.32-2.54-3.99-.52-3.99-.52-7.71,4.52-9.99,5.43-10.08,5.47,0,0-3.16,1.45-2.03,3.9s3.8.77,3.8.77c.25-.09,2.7-1.06,10.83-5.83Z"/><path class="cls-9" d="m678.57,197.64s2.2-1.62.6-3.59c-1.6-1.98-4.43.39-4.43.39-2.43,2.58-40.3,28.7-63.6,44.56,0,0-3.4,1.92-1.52,4.13s4.33,0,4.33,0c14.51-9.88,62.05-42.34,64.62-45.48Z"/><path class="cls-9" d="m696.56,183.2s1.38-1.67,0-3.36-3.7,0-3.7,0c-.91,1-3.93,3.36-5.62,4.61,0,0-2.51,1.41-1,3.57s3.98.44,3.98.44c.49-.36,4.81-3.58,6.35-5.27Z"/><path class="cls-9" d="m718.66,165.47s2.21-2.13.61-3.76-3.9,0-3.9,0c-2.17,1.9-9.11,7.18-9.18,7.23,0,0-2.54,2.15-1.13,3.98s4.15,0,4.15,0c.29-.22,7.15-5.44,9.45-7.45Z"/><ellipse class="cls-2" cx="346.61" cy="321.83" rx="59.77" ry="129.06"/><ellipse class="cls-3" cx="346.61" cy="188.54" rx="151.82" ry="78.92"/><polygon class="cls-1" points="354.58 280.39 354.58 394.06 453.02 450.9 551.46 394.06 551.46 280.39 453.02 223.56 354.58 280.39"/><path class="cls-5" d="m317.96,307.21c1.79-2.67,4.21-4.72,7.26-6.15s6.58-2.15,10.6-2.15c3.15,0,5.84.35,8.09,1.04,2.25.7,4.15,1.61,5.71,2.75,1.55,1.14,2.8,2.45,3.73,3.94.94,1.49,1.66,3.04,2.18,4.63l-1.91,37.94c.48.12.9.18,1.25.18.64,0,1.14-.21,1.52-.63.38-.42.61-1.2.69-2.36l2.63-43.49c.68-.6,1.62-1.13,2.84-1.61,1.21-.48,2.54-.89,3.97-1.23,1.43-.34,2.9-.61,4.39-.81,1.49-.2,2.88-.3,4.15-.3,3.15,0,5.85.39,8.12,1.17,2.27.78,4.14,1.84,5.62,3.2,1.47,1.35,2.55,2.92,3.23,4.69.68,1.77,1.02,3.67,1.02,5.71,0,2.43-.97,7.82-2.9,16.16-1.93,8.34-4.79,19.84-8.57,34.5-.72,2.71-1.86,4.95-3.44,6.72-1.57,1.77-3.49,3.18-5.74,4.21-2.25,1.04-4.77,1.77-7.56,2.21-2.79.44-5.74.66-8.84.66-2.11,0-4.18-.12-6.21-.36-2.03-.24-3.97-.59-5.82-1.04-1.85-.46-3.58-1.04-5.17-1.73-1.59-.7-2.99-1.5-4.18-2.42-1.47-3.23-3.01-7.18-4.6-11.86-1.59-4.68-3.14-9.86-4.63-15.53-1.49-5.68-2.89-11.73-4.18-18.16-1.29-6.43-2.38-13.05-3.26-19.86Z"/><path class="cls-5" d="m395.68,319.64c.8-.52,1.59-.94,2.39-1.25.8-.32,1.65-.72,2.57-1.2-.76-.4-1.53-.96-2.33-1.67-.8-.72-1.52-1.58-2.18-2.6-.66-1.02-1.19-2.18-1.61-3.5-.42-1.31-.63-2.79-.63-4.42,0-2.55.45-4.87,1.34-6.96.9-2.09,2.12-3.88,3.67-5.38,1.55-1.49,3.37-2.66,5.44-3.5,2.07-.84,4.3-1.25,6.69-1.25s4.67.44,6.72,1.31c2.05.88,3.83,2.07,5.35,3.58,1.51,1.51,2.7,3.32,3.55,5.41.86,2.09,1.28,4.35,1.28,6.78,0,2.07-.35,3.99-1.05,5.77-.7,1.77-1.62,3.36-2.78,4.75-1.16,1.39-2.51,2.56-4.06,3.5-1.55.94-3.17,1.58-4.84,1.94,0,.6.13,1.13.39,1.58.26.46.71.69,1.34.69,1.99,0,4.06-.8,6.21-2.39.12.08.32.22.6.42.28.2.58.44.9.72.32.28.62.55.9.81.28.26.46.45.54.57v23.66c0,2.75.3,5.11.9,7.08.6,1.97,1.73,3.48,3.41,4.51.04.32.06.71.06,1.17v1.05c0,3.03-.42,5.64-1.25,7.83-.84,2.19-2.01,3.99-3.52,5.41-1.51,1.41-3.32,2.46-5.41,3.14-2.09.68-4.37,1.02-6.84,1.02-1.91,0-3.91-.32-6-.96-2.09-.64-4-1.71-5.74-3.23-1.73-1.51-3.17-3.53-4.3-6.06-1.14-2.53-1.7-5.68-1.7-9.47v-38.83Z"/><path class="cls-5" d="m434.99,294.79c.88-.44,1.92-.87,3.14-1.29,1.21-.42,2.6-.78,4.15-1.08s3.21-.45,4.96-.45c2.87,0,5.33.32,7.38.96,2.05.64,3.73,1.52,5.05,2.66,1.31,1.14,2.28,2.5,2.9,4.09.62,1.59.93,3.37.93,5.32v42c0,2.75.3,5.11.9,7.08.6,1.97,1.73,3.48,3.41,4.51.04.32.06.71.06,1.17v1.05c0,5.77-1.46,10.12-4.39,13.02-2.93,2.91-7,4.36-12.22,4.36-2.35,0-4.62-.34-6.81-1.02-2.19-.68-4.12-1.81-5.79-3.41-1.67-1.59-3.02-3.68-4.03-6.27-1.02-2.59-1.52-5.79-1.52-9.62v-62.07c.4-.24,1.04-.58,1.91-1.02Z"/><path class="cls-5" d="m532.01,347c0,2.75.3,5.11.9,7.08.6,1.97,1.73,3.48,3.41,4.51.04.32.06.71.06,1.17v1.05c0,3.03-.48,5.64-1.43,7.83-.96,2.19-2.2,3.99-3.73,5.41-1.53,1.41-3.28,2.46-5.23,3.14-1.95.68-3.94,1.02-5.97,1.02-1.43,0-2.84-.16-4.21-.48-1.37-.32-2.67-.82-3.88-1.49-1.22-.68-2.31-1.53-3.29-2.57-.98-1.04-1.74-2.25-2.3-3.64-1.35,0-2.03.66-2.03,1.97,0,.56.23,1.22.69,2,.46.78,1.08,1.48,1.88,2.12-1.16.68-2.57,1.2-4.24,1.55s-3.31.54-4.9.54c-2.35,0-4.7-.26-7.05-.78-2.35-.52-4.6-1.34-6.75-2.48-2.15-1.13-4.16-2.59-6.03-4.36-1.87-1.77-3.49-3.9-4.87-6.39-1.37-2.49-2.46-5.35-3.26-8.57-.8-3.23-1.19-6.89-1.19-10.99,0-5.22.78-9.86,2.33-13.92,1.55-4.06,3.69-7.49,6.42-10.28,2.73-2.79,5.95-4.91,9.68-6.36,3.72-1.45,7.74-2.18,12.04-2.18,3.03,0,5.67.3,7.95.9s4.2,1.29,5.79,2.09c.2-.2.36-.43.48-.69.12-.26.18-.49.18-.69,0-.64-.41-1.21-1.22-1.73-.82-.52-1.85-.96-3.11-1.34-1.25-.38-2.64-.68-4.15-.9-1.51-.22-2.95-.33-4.3-.33,0-.76-.03-1.58-.09-2.48s-.16-1.77-.3-2.63c-.14-.86-.31-1.69-.51-2.51-.2-.82-.44-1.52-.72-2.12.92-1.08,1.91-2.07,2.99-2.99,1.08-.92,2.28-1.7,3.61-2.36,1.33-.66,2.83-1.17,4.48-1.55,1.65-.38,3.53-.57,5.65-.57,2.31,0,4.46.34,6.45,1.02,1.99.68,3.71,1.68,5.17,3.02,1.45,1.33,2.59,2.97,3.41,4.9.82,1.93,1.22,4.15,1.22,6.66v39.43Zm-29.21-2.75c0-1.31.02-2.44.06-3.38.04-.94.08-1.75.12-2.45.04-.7.09-1.32.15-1.88s.13-1.16.21-1.79c-.16-.16-.35-.3-.57-.42-.22-.12-.51-.18-.87-.18-.4,0-.75.12-1.04.36-.3.24-.55.76-.75,1.55-.2.8-.33,1.81-.39,3.05-.06,1.24-.09,2.75-.09,4.54v6.09c0,1.04.13,1.78.39,2.24.26.46.77.69,1.52.69.56,0,.98-.14,1.25-.42v-8.01Z"/><path class="cls-5" d="m613.38,361.93c1.39-.32,2.91-.98,4.54-1.97,1.63-1,3.21-2.61,4.72-4.84.68-1.04,1.02-1.93,1.02-2.69,0-1.04-.52-1.55-1.55-1.55-.08,0-.15,0-.21.03-.06.02-.13.03-.21.03-2.83,5.85-7.35,8.78-13.56,8.78-1.55,0-3-.16-4.33-.48-1.33-.32-2.58-.84-3.73-1.55-1.16-.72-2.25-1.67-3.29-2.87-1.04-1.19-2.03-2.67-2.99-4.42h-.36c-.44,0-.82.1-1.13.3-.32.2-.48.56-.48,1.08,0,.68.24,1.39.72,2.15.88,1.43,1.82,2.67,2.84,3.7,1.02,1.04,2.05,1.9,3.11,2.6,1.05.7,2.1,1.22,3.14,1.58,1.04.36,1.97.58,2.81.66l-.48,11.29c-1.04.68-2.12,1.29-3.26,1.85s-2.42,1.03-3.85,1.4c-1.43.38-3.06.67-4.87.87-1.81.2-3.89.3-6.24.3s-4.56-.22-6.99-.66c-2.43-.44-4.66-1.16-6.69-2.18s-3.71-2.32-5.05-3.91c-1.33-1.59-2-3.56-2-5.92,0-1.23.06-2.92.18-5.05.12-2.13.29-4.55.51-7.26.22-2.71.47-5.63.75-8.78.28-3.15.58-6.32.9-9.53.32-3.21.64-6.38.96-9.53.32-3.15.64-6.07.96-8.78.32-2.71.61-5.12.87-7.23.26-2.11.49-3.76.69-4.96,1.15-1.04,2.47-1.91,3.94-2.63s3.02-1.28,4.63-1.7c1.61-.42,3.24-.72,4.87-.9,1.63-.18,3.21-.27,4.72-.27,2.71,0,5.37.3,7.98.9,2.61.6,4.77,1.37,6.48,2.33l3.29,10.99-2.09,8.78c-.08.32-.14.62-.18.9-.04.28-.06.56-.06.84,0,1.35.8,2.07,2.39,2.15l5.68-23.6c.68-.36,1.54-.74,2.6-1.13,1.05-.4,2.23-.76,3.52-1.08,1.29-.32,2.7-.58,4.21-.78,1.51-.2,3.07-.3,4.66-.3,2.83,0,5.31.23,7.44.69,2.13.46,3.92,1.2,5.38,2.21s2.6,2.34,3.44,3.97,1.39,3.64,1.67,6.03c.28,2.51.63,5.54,1.04,9.08.42,3.54.85,7.3,1.29,11.26.44,3.96.88,7.98,1.31,12.04.44,4.06.83,7.88,1.16,11.44.34,3.56.62,6.72.84,9.47.22,2.75.33,4.78.33,6.09-4.42,4.66-10.79,6.99-19.12,6.99-2.63,0-5.04-.22-7.23-.66-2.19-.44-4.07-1.1-5.65-2-1.57-.9-2.83-2-3.76-3.32s-1.48-2.87-1.64-4.66l-.54-5.62Z"/><path class="cls-5" d="m714.94,347.54c0,2.75.3,5.02.9,6.81.6,1.79,1.73,3.21,3.41,4.24.04.32.06.71.06,1.17v1.05c0,3.03-.48,5.64-1.43,7.83-.96,2.19-2.2,3.99-3.73,5.41-1.53,1.41-3.28,2.46-5.23,3.14s-3.94,1.02-5.97,1.02c-1.43,0-2.84-.17-4.21-.51-1.38-.34-2.67-.85-3.88-1.52-1.22-.68-2.31-1.54-3.29-2.6-.98-1.05-1.74-2.3-2.3-3.73-.68,0-1.19.18-1.52.54-.34.36-.51.84-.51,1.43,0,.56.18,1.16.54,1.79.36.64.88,1.29,1.55,1.97-1.27.88-2.99,1.53-5.14,1.97-2.15.44-4.34.66-6.57.66-3.62,0-6.92-.5-9.89-1.49s-5.52-2.47-7.65-4.42c-2.13-1.95-3.79-4.33-4.96-7.14-1.17-2.81-1.76-6.04-1.76-9.71s.63-7.06,1.88-9.83c1.25-2.77,2.96-5.06,5.11-6.87s4.65-3.16,7.5-4.03c2.85-.88,5.87-1.31,9.05-1.31,1.43,0,2.71.05,3.82.15,1.11.1,2.07.21,2.87.33.92.16,1.69.32,2.33.48.12-.4.18-.74.18-1.02,0-.52-.27-.96-.81-1.31-.54-.36-1.25-.63-2.12-.81-.88-.18-1.89-.31-3.05-.39-1.16-.08-2.33-.12-3.53-.12-2.71,0-5.42.3-8.12.9s-5.14,1.51-7.29,2.75c-.88-1.47-1.58-3.35-2.12-5.62-.54-2.27-.81-4.58-.81-6.93,0-1.11.07-2.24.21-3.38.14-1.13.43-2.14.87-3.02,1.04-.48,2.36-1.01,3.97-1.58,1.61-.58,3.48-1.12,5.62-1.61,2.13-.5,4.48-.93,7.05-1.28s5.33-.54,8.27-.54c5.14,0,9.63.58,13.47,1.73,3.84,1.16,7.04,2.82,9.59,4.99,2.55,2.17,4.46,4.84,5.74,8.01,1.27,3.17,1.91,6.74,1.91,10.72v11.71Zm-31,2.93c-.92,0-1.56.23-1.94.69s-.57.99-.57,1.58c0,.8.29,1.35.87,1.67.58.32,1.26.48,2.06.48,1.27,0,2.25-.32,2.93-.96.68-.64,1.02-1.79,1.02-3.46h-4.36Z"/><path class="cls-5" d="m783.58,347c0,2.75.3,5.11.9,7.08.6,1.97,1.73,3.48,3.41,4.51.04.32.06.71.06,1.17v1.05c0,3.03-.48,5.64-1.43,7.83-.96,2.19-2.2,3.99-3.73,5.41-1.53,1.41-3.28,2.46-5.23,3.14s-3.94,1.02-5.97,1.02c-1.43,0-2.84-.16-4.21-.48-1.37-.32-2.67-.82-3.88-1.49-1.22-.68-2.31-1.53-3.29-2.57-.98-1.04-1.74-2.25-2.3-3.64-1.35,0-2.03.66-2.03,1.97,0,.56.23,1.22.69,2,.46.78,1.08,1.48,1.88,2.12-1.16.68-2.57,1.2-4.24,1.55s-3.31.54-4.9.54c-2.35,0-4.7-.26-7.05-.78-2.35-.52-4.6-1.34-6.75-2.48-2.15-1.13-4.16-2.59-6.03-4.36-1.87-1.77-3.5-3.9-4.87-6.39-1.37-2.49-2.46-5.35-3.26-8.57-.8-3.23-1.2-6.89-1.2-10.99,0-5.22.78-9.86,2.33-13.92,1.55-4.06,3.69-7.49,6.42-10.28,2.73-2.79,5.95-4.91,9.68-6.36,3.72-1.45,7.74-2.18,12.04-2.18,3.03,0,5.67.3,7.95.9,2.27.6,4.2,1.29,5.79,2.09.2-.2.36-.43.48-.69.12-.26.18-.49.18-.69,0-.64-.41-1.21-1.22-1.73-.82-.52-1.85-.96-3.11-1.34-1.25-.38-2.64-.68-4.15-.9-1.51-.22-2.95-.33-4.3-.33,0-.76-.03-1.58-.09-2.48-.06-.9-.16-1.77-.3-2.63-.14-.86-.31-1.69-.51-2.51-.2-.82-.44-1.52-.72-2.12.92-1.08,1.91-2.07,2.99-2.99,1.08-.92,2.28-1.7,3.61-2.36s2.83-1.17,4.48-1.55c1.65-.38,3.53-.57,5.65-.57,2.31,0,4.46.34,6.45,1.02,1.99.68,3.71,1.68,5.17,3.02,1.45,1.33,2.59,2.97,3.41,4.9.82,1.93,1.22,4.15,1.22,6.66v39.43Zm-29.21-2.75c0-1.31.02-2.44.06-3.38.04-.94.08-1.75.12-2.45.04-.7.09-1.32.15-1.88s.13-1.16.21-1.79c-.16-.16-.35-.3-.57-.42-.22-.12-.51-.18-.87-.18-.4,0-.75.12-1.05.36-.3.24-.55.76-.75,1.55-.2.8-.33,1.81-.39,3.05-.06,1.24-.09,2.75-.09,4.54v6.09c0,1.04.13,1.78.39,2.24.26.46.77.69,1.52.69.56,0,.98-.14,1.25-.42v-8.01Z"/><path class="cls-5" d="m874.56,349.81c0,4.02-.68,7.8-2.03,11.32-1.35,3.52-3.35,6.59-5.97,9.2-2.63,2.61-5.9,4.67-9.83,6.18-3.92,1.51-8.45,2.27-13.59,2.27-3.23,0-6.2-.43-8.93-1.28-2.73-.86-5.16-1.9-7.29-3.14-2.13-1.23-3.95-2.56-5.47-3.97-1.51-1.41-2.65-2.66-3.41-3.73-.2-1.27-.35-2.48-.45-3.61-.1-1.14-.15-2.14-.15-3.02,0-3.58.56-6.59,1.67-9.02,1.11-2.43,2.53-4.39,4.24-5.88,1.71-1.49,3.61-2.57,5.71-3.23s4.11-.99,6.06-.99c1.75,0,3.44.24,5.08.72,1.63.48,3.16,1.19,4.57,2.12,1.41.94,2.68,2.09,3.79,3.46,1.11,1.37,2.03,2.96,2.75,4.75.52,0,.96-.16,1.34-.48.38-.32.57-.82.57-1.49,0-.6-.28-1.45-.84-2.57-.56-1.11-1.4-2.26-2.54-3.43s-2.55-2.27-4.24-3.29c-1.69-1.02-3.67-1.72-5.94-2.12v-34.41c.84-.64,1.86-1.27,3.08-1.91,1.21-.64,2.56-1.19,4.03-1.67,1.47-.48,3.03-.87,4.66-1.16,1.63-.3,3.29-.45,4.96-.45s3.55.14,5.65.42c2.09.28,4.06.83,5.91,1.64,1.85.82,3.42,1.94,4.69,3.38,1.27,1.43,1.91,3.29,1.91,5.56v39.85Z"/><path class="cls-5" d="m889.86,311.81c2.47,0,4.53.4,6.18,1.2s2.96,1.91,3.91,3.35c-.52.56-1.01,1.23-1.46,2.03-.46.8-.86,1.58-1.2,2.36-.34.78-.61,1.51-.81,2.21-.2.7-.3,1.25-.3,1.64,0,.48.18.91.54,1.28.36.38.92.57,1.67.57.76-2.95,1.82-5.42,3.2-7.41,1.37-1.99,2.95-3.58,4.72-4.78,1.77-1.19,3.68-2.04,5.74-2.54,2.05-.5,4.13-.75,6.24-.75,1.71,0,3.29.11,4.72.33,1.43.22,2.73.51,3.88.87,1.15.36,2.17.77,3.05,1.22.88.46,1.61.91,2.21,1.34.64,1.67,1.1,3.45,1.37,5.32.28,1.87.42,3.7.42,5.5,0,3.23-.29,5.91-.87,8.06-.58,2.15-1.21,3.92-1.88,5.32-.64.32-1.43.64-2.39.96-.96.32-2,.6-3.14.84s-2.34.43-3.61.57c-1.28.14-2.53.21-3.76.21-1.31,0-2.48-.04-3.5-.12-1.02-.08-1.94-.19-2.78-.33-.84-.14-1.6-.3-2.3-.48-.7-.18-1.4-.35-2.12-.51-.32.32-.48.78-.48,1.37,0,.56.37,1,1.11,1.31.74.32,2.06.66,3.97,1.02v29.99c-1.35.88-2.73,1.58-4.12,2.12-1.39.54-2.76.96-4.09,1.25-1.33.3-2.61.5-3.82.6-1.21.1-2.34.15-3.38.15-2.23,0-4.32-.21-6.27-.63-1.95-.42-3.65-1.05-5.11-1.91s-2.6-1.94-3.43-3.26c-.84-1.31-1.25-2.89-1.25-4.72v-30.77c-1.19-1.67-2.08-3.56-2.66-5.68-.58-2.11-.87-4.32-.87-6.63,0-1.91.29-4.02.87-6.33.58-2.31,1.46-4.36,2.66-6.15h9.14Z"/><path class="cls-5" d="m926.9,360.56c0-2.39.46-4.64,1.38-6.75.92-2.11,2.15-3.95,3.7-5.53,1.55-1.57,3.37-2.82,5.44-3.73,2.07-.92,4.28-1.37,6.63-1.37s4.64.46,6.75,1.37c2.11.92,3.95,2.16,5.53,3.73,1.57,1.57,2.82,3.42,3.73,5.53.92,2.11,1.37,4.36,1.37,6.75s-.46,4.57-1.37,6.66-2.16,3.91-3.73,5.47c-1.57,1.55-3.42,2.78-5.53,3.67-2.11.9-4.36,1.34-6.75,1.34s-4.56-.45-6.63-1.34c-2.07-.9-3.88-2.12-5.44-3.67s-2.79-3.38-3.7-5.47c-.92-2.09-1.38-4.31-1.38-6.66Z"/><ellipse class="cls-6" cx="246.13" cy="173.43" rx="33.78" ry="24.1" transform="translate(-49.67 117.24) rotate(-24.41)"/></svg>