<?xml version="1.0" encoding="UTF-8"?>
<svg id="Layer_1" data-name="Layer 1" xmlns="http://www.w3.org/2000/svg" viewBox="0 0 1920 1080">
  <defs>
    <style>
      .cls-1, .cls-2, .cls-3, .cls-4, .cls-5 {
        stroke-width: 0px;
      }

      .cls-2 {
        fill: #75472e;
      }

      .cls-3 {
        fill: #7acfdd;
      }

      .cls-4 {
        fill: #2a5923;
      }

      .cls-5 {
        fill: #fff;
      }
    </style>
  </defs>
  <rect class="cls-3" width="1920" height="1080"/>
  <path class="cls-5" d="m359.77,341.7c-17.92-3.15-35.54-.96-51.23,5.43-13.71-18.07-34.01-31.22-58.12-35.46-3.33-.59-6.65-.98-9.95-1.21-13.72-18.21-34.09-31.46-58.31-35.72-43.99-7.74-86.19,16.72-102.44,56.43-37.75,6.45-69.13,35.91-76.15,75.79-8.92,50.73,24.96,99.08,75.69,108.01,26.41,4.65,52.17-2.32,72.07-17.21,8.83,34.37,36.98,62.15,74.21,68.7,38.56,6.78,75.75-11.18,95.29-42.46,2.17.55,4.38,1.02,6.62,1.42,50.73,8.92,99.08-24.96,108.01-75.69,8.92-50.73-24.96-99.08-75.69-108.01Z"/>
  <g>
    <rect class="cls-2" x="96.75" y="874" width="182.5" height="21" transform="translate(-284.83 113.71) rotate(-19.53)"/>
    <rect class="cls-2" x="-131" width="264" height="1080"/>
    <ellipse class="cls-1" cx="80" cy="797.5" rx="46" ry="86.5"/>
    <polygon class="cls-4" points=".5 -324.23 155.3 -56.11 310.09 212 .5 212 -309.09 212 -154.3 -56.11 .5 -324.23"/>
  </g>
  <g>
    <rect class="cls-2" x="1647.75" y="988" width="182.5" height="21" transform="translate(-233.73 638.69) rotate(-19.53)"/>
    <rect class="cls-2" x="1653.27" y="928.51" width="13.39" height="116.32" transform="translate(14.61 1997.52) rotate(-62.29)"/>
    <rect class="cls-2" x="1788" width="264" height="1080"/>
    <polygon class="cls-4" points="1919.5 -328.23 2074.3 -60.11 2229.09 208 1919.5 208 1609.91 208 1764.7 -60.11 1919.5 -328.23"/>
  </g>
  <g>
    <rect class="cls-2" x="96.75" y="874" width="182.5" height="21" transform="translate(-284.83 113.71) rotate(-19.53)"/>
    <rect class="cls-2" x="-131" width="264" height="1080"/>
    <ellipse class="cls-1" cx="80" cy="797.5" rx="46" ry="86.5"/>
    <polygon class="cls-4" points=".5 -324.23 155.3 -56.11 310.09 212 .5 212 -309.09 212 -154.3 -56.11 .5 -324.23"/>
  </g>
  <g>
    <rect class="cls-2" x="1647.75" y="988" width="182.5" height="21" transform="translate(-233.73 638.69) rotate(-19.53)"/>
    <rect class="cls-2" x="1653.27" y="928.51" width="13.39" height="116.32" transform="translate(14.61 1997.52) rotate(-62.29)"/>
    <rect class="cls-2" x="1788" width="264" height="1080"/>
    <polygon class="cls-4" points="1919.5 -328.23 2074.3 -60.11 2229.09 208 1919.5 208 1609.91 208 1764.7 -60.11 1919.5 -328.23"/>
  </g>
  <path class="cls-5" d="m1680,31.68c-16.39,0-31.67,4.7-44.6,12.81-14.99-13.89-35.04-22.39-57.09-22.39-3.05,0-6.05.17-9.01.48-15.01-14.01-35.15-22.59-57.3-22.59-40.23,0-73.84,28.28-82.07,66.04-32.48,11.61-55.72,42.65-55.72,79.11,0,46.39,37.61,84,84,84,24.15,0,45.92-10.2,61.24-26.52,13.19,29.11,42.51,49.36,76.55,49.36s65.45-21.73,77.9-52.54c2.01.14,4.05.22,6.1.22,46.39,0,84-37.61,84-84s-37.61-84-84-84Z"/>
</svg>